<?xml version="1.0" standalone="no"?>
<!DOCTYPE svg PUBLIC "-//W3C//DTD SVG 20010904//EN"
 "http://www.w3.org/TR/2001/REC-SVG-20010904/DTD/svg10.dtd">
<svg version="1.0" xmlns="http://www.w3.org/2000/svg"
 width="1000.000000pt" height="1000.000000pt" viewBox="0 0 1000.000000 1000.000000"
 preserveAspectRatio="xMidYMid meet">
<metadata>
Created by potrace 1.11, written by Peter Selinger 2001-2013
</metadata>
<g transform="translate(0.000000,1000.000000) scale(0.100000,-0.100000)"
fill="#000000" stroke="none">
<path d="M4750 9195 c-7 -9 -10 -18 -7 -21 10 -11 37 5 37 21 0 19 -14 19 -30
0z"/>
<path d="M4967 9192 c-9 -14 -16 -92 -9 -92 36 2 64 91 30 98 -9 2 -19 -1 -21
-6z"/>
<path d="M4303 9177 c-4 -7 -20 -20 -35 -30 -18 -11 -28 -27 -30 -49 l-4 -33
-20 42 c-19 43 -34 55 -34 28 0 -8 -4 -15 -9 -15 -5 0 -17 -3 -25 -6 -12 -5
-15 -2 -10 10 11 27 -31 19 -46 -10 -8 -14 -23 -30 -33 -36 -15 -8 -20 -5 -24
11 -7 26 -23 28 -23 3 0 -28 -10 -32 -37 -15 -22 15 -25 14 -46 -5 -31 -28
-96 -54 -120 -46 -16 5 -19 3 -14 -10 5 -11 1 -16 -13 -16 -11 0 -20 5 -20 10
0 9 -60 -17 -143 -61 -10 -5 -21 -7 -26 -5 -4 3 -13 -6 -20 -20 -9 -21 -14
-24 -25 -15 -10 8 -16 9 -21 1 -3 -5 -15 -10 -26 -10 -11 0 -22 -7 -25 -15 -4
-8 -13 -15 -20 -15 -8 0 -17 -7 -20 -15 -7 -17 -31 -20 -36 -4 -5 15 -58 -29
-58 -47 0 -11 -6 -13 -20 -9 -14 4 -32 -3 -58 -22 -20 -15 -54 -37 -75 -47
-21 -11 -43 -28 -48 -37 -5 -10 -17 -15 -26 -13 -12 3 -27 -8 -43 -31 -14 -19
-33 -35 -42 -35 -10 0 -18 -7 -18 -15 0 -8 -7 -15 -15 -15 -8 0 -15 -4 -15 -9
0 -13 -45 -61 -57 -61 -18 0 -56 -49 -50 -64 5 -13 0 -15 -26 -13 -29 2 -32
-1 -35 -30 -3 -31 -10 -37 -39 -34 -12 2 -28 -17 -28 -34 0 -5 -15 -19 -32
-30 -22 -13 -32 -26 -29 -38 2 -10 -4 -22 -15 -27 -33 -18 -69 -57 -69 -75 0
-9 -16 -31 -36 -48 -20 -18 -48 -57 -61 -87 -14 -30 -34 -61 -44 -68 -11 -8
-18 -20 -15 -28 6 -15 -21 -74 -35 -74 -5 0 -9 -8 -9 -18 0 -21 -27 -79 -40
-87 -5 -3 -12 -28 -16 -55 -4 -27 -13 -55 -20 -61 -8 -6 -14 -19 -14 -28 0 -9
-7 -25 -16 -36 -9 -12 -12 -30 -8 -47 4 -19 1 -28 -6 -28 -8 0 -11 -10 -8 -24
3 -14 0 -27 -7 -30 -14 -5 -46 -123 -38 -142 3 -8 -1 -21 -8 -30 -12 -15 -21
-61 -34 -169 -3 -22 -8 -51 -11 -65 -3 -14 -8 -45 -10 -70 -2 -25 -8 -72 -13
-105 -22 -133 -22 -145 -5 -145 15 0 15 -2 0 -25 -18 -28 -21 -65 -5 -65 8 0
8 -4 0 -14 -15 -18 -22 -111 -14 -212 l5 -80 37 6 c20 3 35 11 34 17 -2 10 54
21 140 28 21 2 46 10 55 17 9 7 24 20 34 28 10 8 18 25 18 38 0 20 4 23 22 19
12 -4 28 -1 35 5 9 7 13 7 13 0 0 -8 -67 -68 -99 -89 -2 -1 -1 -10 3 -19 5
-13 9 -14 21 -4 11 9 15 9 15 1 0 -6 10 -16 23 -22 12 -5 40 -21 62 -34 43
-26 80 -32 91 -14 11 19 100 5 138 -22 34 -23 77 -101 91 -165 8 -33 22 -81
65 -211 16 -51 30 -99 30 -107 0 -20 -17 -29 -65 -37 -34 -6 -37 -8 -17 -14
14 -5 22 -15 22 -29 0 -45 41 -60 81 -28 39 32 24 140 -34 239 -17 30 -16 83
3 83 4 0 10 9 13 21 10 38 32 15 32 -34 0 -63 9 -66 28 -10 l17 48 -6 -56 c-6
-59 1 -99 17 -99 5 0 9 7 9 15 0 8 4 15 9 15 5 0 9 -11 9 -25 0 -29 12 -47 19
-27 3 6 9 12 14 12 5 0 3 -11 -3 -25 -9 -19 -8 -31 2 -49 7 -13 9 -29 5 -35
-3 -7 -9 -91 -11 -189 -3 -97 -9 -186 -13 -197 -14 -30 -31 -110 -31 -142 0
-16 -6 -37 -14 -48 -14 -21 -26 -81 -30 -155 -1 -25 -5 -50 -9 -56 -7 -12 0
-181 9 -195 3 -5 2 -15 -3 -21 -4 -7 -8 -37 -8 -67 0 -34 -5 -56 -12 -58 -7
-3 -13 -11 -13 -19 0 -9 5 -12 11 -8 8 5 10 -1 5 -19 -3 -14 -2 -29 4 -32 5
-3 10 -19 10 -34 0 -16 6 -44 14 -62 7 -19 11 -40 9 -47 -3 -7 1 -19 7 -27 15
-18 20 -94 8 -102 -16 -9 -29 -55 -20 -67 5 -6 8 -34 7 -63 -1 -29 1 -56 4
-61 35 -53 211 -38 343 29 10 5 24 9 32 9 7 0 24 8 37 18 39 30 108 51 209 63
52 6 104 15 115 19 11 5 27 11 36 13 15 5 15 12 -6 68 -15 42 -29 65 -44 70
-12 5 -21 17 -21 29 0 11 -7 23 -15 26 -8 4 -15 13 -15 21 0 8 4 12 9 9 8 -6
23 45 15 53 -2 2 -13 -7 -24 -20 l-20 -24 1 30 c2 67 -10 117 -32 138 -13 12
-27 21 -32 19 -5 -1 -6 2 -2 8 3 5 1 18 -4 28 -6 11 -8 22 -5 25 9 9 34 -4 34
-17 1 -12 50 -51 50 -39 0 12 -89 123 -99 123 -11 0 -35 59 -32 78 1 8 -3 20
-10 28 -9 11 -15 12 -26 3 -19 -17 -24 -8 -25 50 -1 39 -5 51 -15 47 -7 -3
-13 -1 -13 5 0 6 -7 17 -15 25 -8 8 -12 21 -9 29 4 8 1 15 -5 15 -6 0 -11 14
-11 30 0 24 4 30 21 30 18 0 19 2 9 15 -10 12 -10 15 4 15 9 0 16 7 16 15 0
18 -19 20 -21 3 -1 -7 -4 3 -8 22 -4 24 -11 34 -21 33 -10 -2 -21 10 -28 30
-12 29 -14 31 -26 15 -7 -10 -18 -18 -25 -18 -12 0 -15 13 -4 23 9 10 14 58 7
79 -3 11 -11 15 -22 12 -13 -5 -14 -4 -4 4 7 5 15 30 17 56 1 25 8 53 15 61
10 12 9 15 -4 15 -20 0 -20 9 1 32 18 20 4 25 -27 8 -17 -9 -18 -7 -13 24 6
37 -13 60 -29 33 -4 -9 -15 -23 -23 -31 -8 -8 -15 -19 -15 -25 0 -19 -20 -12
-21 7 0 9 -3 38 -5 63 -3 33 0 50 11 59 16 13 18 10 15 -32 -1 -20 3 -28 15
-28 12 0 15 5 10 21 -6 18 -4 21 13 17 17 -5 21 1 27 38 5 35 10 44 26 44 21
0 24 16 10 52 -6 16 -5 29 4 41 8 11 11 33 8 58 -4 29 -2 43 10 52 18 14 36
74 19 63 -6 -3 -17 1 -26 10 -9 8 -20 12 -26 9 -13 -8 -13 -2 4 30 13 25 15
25 24 8 13 -23 24 -12 26 26 1 16 5 33 9 37 4 4 7 14 7 23 -1 14 -2 14 -14 -1
-7 -10 -17 -18 -21 -18 -8 0 -2 44 10 75 7 17 6 18 -6 7 -8 -7 -14 -18 -14
-24 0 -6 -6 -13 -12 -15 -21 -7 -14 9 25 62 20 28 37 60 37 73 1 27 -9 29 -21
2 -6 -14 -13 -17 -24 -10 -12 8 -11 12 7 32 11 13 24 33 28 46 3 12 9 22 13
22 4 0 20 11 35 24 19 16 24 26 15 29 -10 3 -11 8 0 26 17 29 15 34 -7 28 -14
-3 -18 -1 -14 9 3 8 9 14 15 14 5 0 6 5 3 10 -10 16 4 48 23 54 9 3 28 23 42
43 13 21 35 49 47 62 13 13 23 29 23 35 0 6 16 20 36 31 20 11 43 30 51 42 9
13 21 23 29 23 7 0 19 8 26 18 7 10 21 21 31 25 9 3 17 13 17 21 0 9 9 20 19
26 11 5 21 22 23 37 2 20 8 27 20 25 9 -1 20 3 24 9 5 8 -5 10 -35 7 -46 -4
-56 8 -13 18 60 15 108 74 70 87 -7 2 -3 2 10 0 13 -2 22 2 22 9 0 7 3 24 7
37 5 22 4 22 -17 11 l-23 -12 22 35 c19 31 20 37 7 50 -11 10 -12 17 -4 25 20
20 3 23 -31 6 -18 -9 -34 -14 -37 -11 -8 7 7 37 20 37 6 0 20 8 31 16 18 14
19 16 3 25 -34 19 6 69 48 61 17 -3 24 0 24 12 0 9 5 16 11 16 5 0 7 5 3 11
-4 8 -9 8 -17 0 -6 -6 -24 -11 -40 -11 -26 0 -29 3 -23 25 5 19 2 27 -11 32
-9 4 -19 1 -21 -5 -2 -7 -10 -12 -17 -12 -24 0 -26 18 -3 39 12 12 19 23 16
26 -8 8 -68 -6 -68 -16 0 -5 -4 -9 -10 -9 -18 0 -11 16 13 29 12 6 33 18 47
26 l24 14 -24 9 -24 9 28 27 c28 25 28 26 7 26 -15 0 -21 5 -19 17 2 13 -6 19
-32 24 -30 5 -32 7 -15 14 28 12 40 27 42 53 2 17 -2 22 -22 22 -29 0 -34 16
-7 23 13 4 12 5 -5 6 -37 2 -34 17 10 47 l42 28 -30 7 c-17 4 -22 7 -11 8 23
1 96 32 96 40 0 3 -17 6 -37 6 -29 0 -38 4 -41 19 -3 14 0 17 12 13 8 -3 18
-2 20 2 6 10 -21 35 -48 45 -29 10 -13 17 46 21 29 2 57 4 62 4 14 1 -2 15
-21 17 -9 2 -20 10 -25 18 -5 9 -16 16 -25 16 -27 0 -2 15 47 29 44 13 44 13
20 26 -14 8 -36 11 -50 9 -20 -5 -22 -3 -10 5 8 6 23 11 33 11 22 0 35 29 17
40 -18 11 -3 29 20 23 12 -3 20 0 20 7 0 7 -7 10 -15 7 -8 -4 -17 -2 -20 3 -9
15 13 21 38 9 20 -9 32 -8 54 3 32 16 53 13 53 -8 0 -9 -8 -12 -27 -9 -22 4
-37 -3 -67 -30 l-39 -35 43 0 c34 0 41 3 32 12 -22 22 -12 31 29 24 25 -4 46
-2 54 4 7 6 64 13 125 15 61 1 114 6 117 9 12 12 -7 19 -20 8 -17 -14 -28 -6
-20 15 5 13 1 15 -20 9 -25 -6 -26 -5 -12 11 8 10 21 26 28 37 12 16 16 17 38
5 13 -8 27 -18 30 -23 4 -5 12 -7 19 -4 6 2 -13 21 -44 42 -35 24 -62 36 -72
32 -26 -10 -63 19 -57 44 5 19 6 19 32 1 58 -40 127 -65 119 -42 -1 6 -18 20
-37 33 -19 13 -36 30 -39 38 -4 12 -2 13 9 3 7 -7 21 -13 30 -13 10 0 31 -18
48 -39 31 -39 39 -57 21 -46 -5 3 -10 2 -10 -3 0 -5 20 -9 45 -9 25 0 51 -5
57 -11 14 -14 28 -16 28 -4 0 4 -15 14 -34 20 -19 7 -40 20 -47 28 -11 14 -8
15 31 9 25 -4 52 -11 61 -16 14 -7 16 -5 12 12 -6 21 -5 21 20 5 25 -17 25
-17 32 14 6 26 2 34 -21 53 -59 47 -58 46 -76 30 -18 -16 -38 -10 -38 13 0 22
44 17 97 -13 26 -14 50 -30 51 -35 2 -4 12 -8 22 -8 10 0 20 -3 22 -7 2 -5 18
-16 36 -26 35 -20 56 -16 31 6 -8 6 -23 23 -34 37 l-20 24 30 -19 c17 -10 37
-25 45 -33 10 -11 15 -11 18 -3 4 13 51 -12 65 -36 8 -13 47 -19 47 -6 0 3 -7
15 -17 25 -15 17 -15 18 1 18 10 0 26 -5 37 -10 15 -8 26 -6 49 12 26 19 32
20 40 8 11 -17 3 -27 -24 -32 -25 -4 -33 -27 -9 -27 10 0 27 -1 38 -3 16 -2
19 2 18 20 -4 29 14 28 39 -3 11 -14 25 -25 33 -25 7 0 15 -6 18 -12 2 -7 7
-10 11 -7 4 3 2 18 -3 33 -13 33 1 34 27 1 25 -31 30 -32 25 -1 -4 18 -1 24
12 23 32 -3 28 23 -4 36 -17 6 -31 15 -31 20 0 5 -13 22 -30 39 -16 16 -30 37
-30 45 0 9 -8 22 -17 29 -17 12 -16 13 4 14 14 0 24 -9 31 -27 5 -16 19 -39
31 -52 11 -13 21 -28 21 -33 0 -4 9 -8 20 -8 11 0 20 -6 20 -12 0 -9 3 -9 9 1
7 10 3 23 -10 39 -10 14 -19 30 -19 36 0 6 6 4 13 -5 7 -9 23 -21 36 -29 22
-11 23 -10 17 5 -5 15 -4 16 9 5 8 -7 15 -18 15 -25 0 -16 25 -26 44 -19 8 3
17 1 21 -5 9 -16 25 -13 25 4 0 8 -3 15 -8 15 -14 0 -62 51 -62 65 0 8 9 15
20 15 11 0 20 -7 20 -15 0 -9 7 -18 15 -21 8 -4 13 -10 10 -15 -9 -13 18 -49
37 -49 10 0 18 5 18 10 0 6 5 10 10 10 7 0 7 -6 2 -17 -14 -26 3 -63 28 -63
11 0 20 5 20 11 0 6 6 9 13 7 6 -3 12 -9 12 -14 0 -20 18 -35 37 -31 19 5 78
-10 88 -23 6 -8 40 -21 40 -15 0 2 -10 13 -22 25 -26 24 -7 27 21 3 15 -12 17
-21 10 -40 -12 -33 -12 -35 11 -28 12 4 20 2 20 -5 0 -6 4 -9 9 -5 5 3 12 1
16 -5 3 -5 26 -8 51 -6 29 2 50 -2 59 -10 7 -8 21 -11 29 -8 9 3 23 1 31 -6 9
-7 26 -9 45 -5 19 4 36 2 46 -5 11 -10 18 -9 34 5 18 16 20 16 20 2 0 -10 3
-16 8 -15 17 3 40 -15 35 -28 -3 -8 0 -14 6 -14 16 0 51 -38 51 -55 0 -8 -4
-15 -10 -15 -5 0 -10 -5 -10 -11 0 -6 8 -9 18 -7 10 2 17 13 17 26 1 32 25 45
47 25 23 -21 23 -30 -3 -38 -12 -4 -29 -15 -39 -25 -10 -10 -24 -20 -31 -22
-11 -5 -12 -8 -1 -19 9 -9 12 -10 12 -1 0 7 6 12 14 12 8 0 16 6 19 13 2 6 8
9 12 5 10 -10 -13 -38 -31 -38 -8 0 -19 -11 -24 -25 -5 -14 -26 -35 -45 -46
-19 -12 -35 -25 -35 -30 0 -5 -9 -9 -20 -9 -11 0 -20 -7 -20 -15 0 -8 9 -15
20 -15 11 0 20 6 20 14 0 14 37 29 51 21 4 -3 2 -16 -4 -30 -9 -20 -17 -24
-34 -20 -35 8 -27 -12 12 -31 19 -9 35 -20 35 -23 0 -15 -14 -20 -26 -10 -10
8 -16 5 -26 -10 -7 -12 -21 -21 -30 -21 -10 0 -18 -8 -18 -17 0 -15 -2 -16
-10 -3 -11 18 -23 8 -14 -14 7 -18 29 -22 39 -6 3 6 11 10 17 10 5 0 0 -9 -13
-20 -20 -16 -22 -21 -9 -29 12 -8 11 -16 -8 -51 -12 -23 -19 -47 -15 -52 3 -6
-2 -17 -12 -25 -18 -12 -18 -13 -1 -13 13 0 16 -5 11 -20 -6 -20 9 -28 20 -10
3 6 11 10 17 10 6 0 4 -8 -4 -17 -16 -19 -22 -73 -8 -73 20 0 39 13 34 22 -4
6 -1 8 7 6 9 -3 13 -17 11 -42 -2 -20 0 -36 3 -36 18 0 45 23 45 39 0 21 27
47 37 37 4 -4 2 -16 -5 -26 -7 -12 -8 -20 -2 -20 5 0 10 5 10 10 0 6 7 10 15
10 8 0 15 -4 15 -10 0 -5 -4 -10 -10 -10 -5 0 -10 -9 -10 -20 0 -18 5 -20 44
-17 24 2 48 7 55 11 22 14 63 17 56 5 -5 -8 1 -9 23 -4 27 6 30 4 25 -14 -3
-12 -1 -21 6 -21 6 0 11 7 11 15 0 8 9 19 19 25 16 8 23 5 40 -15 18 -24 20
-25 30 -8 9 16 12 16 21 3 5 -8 10 -11 10 -5 0 5 5 4 12 -3 8 -8 6 -16 -12
-30 -16 -13 -20 -21 -12 -26 7 -4 12 -3 12 2 0 6 11 13 24 16 13 3 31 9 40 12
12 5 16 0 16 -20 0 -21 5 -26 24 -26 13 0 28 -6 34 -12 11 -14 12 -18 12 -44
0 -14 3 -14 15 -4 11 9 19 10 27 2 13 -13 2 -32 -19 -32 -35 0 -84 -24 -78
-38 4 -10 0 -13 -14 -9 -14 3 -18 1 -14 -9 3 -8 -2 -17 -11 -20 -9 -3 -16 -12
-16 -20 0 -8 -10 -14 -22 -14 l-21 0 21 -19 c12 -10 19 -21 16 -24 -4 -3 -13
0 -21 8 -13 13 -16 13 -30 -1 -9 -9 -26 -14 -40 -11 -12 2 -23 0 -23 -4 0 -5
-11 -4 -25 1 -21 8 -25 6 -25 -8 -1 -18 -33 -62 -47 -62 -4 0 -19 -9 -33 -20
-25 -19 -25 -19 -52 7 -22 21 -28 23 -28 11 0 -11 -10 -18 -27 -20 -14 -2 -28
-10 -31 -18 -3 -11 -2 -12 7 -4 9 9 19 9 37 0 31 -14 31 -28 0 -20 -17 4 -27
1 -34 -12 -7 -12 -16 -15 -36 -10 -14 3 -26 11 -26 17 0 6 9 8 23 4 15 -4 18
-3 9 3 -8 6 -11 18 -7 35 6 24 5 25 -32 24 -21 -1 -37 3 -36 9 1 5 5 23 9 39
7 29 7 29 -27 -9 -22 -26 -30 -41 -21 -44 15 -5 16 -32 0 -32 -8 0 -9 -3 -2
-10 11 -11 54 -2 54 12 0 5 4 6 10 3 5 -3 -4 -19 -21 -36 -16 -16 -27 -34 -24
-39 8 -13 -1 -13 -28 1 -20 9 -20 9 -4 -4 9 -8 17 -25 17 -38 1 -22 2 -23 14
-6 19 24 34 21 32 -7 0 -13 -4 -22 -9 -19 -4 2 -15 -4 -25 -13 -16 -17 -16
-18 2 -11 16 6 18 4 12 -28 -4 -19 -3 -35 1 -35 5 0 9 -19 10 -42 1 -68 6 -92
19 -108 6 -8 14 -24 16 -35 2 -11 10 -19 16 -17 7 1 12 -4 12 -11 0 -8 9 -22
20 -32 23 -21 140 -199 140 -213 0 -6 4 -12 8 -14 5 -1 25 -29 46 -60 21 -32
65 -81 99 -110 114 -96 165 -168 181 -253 4 -16 3 -23 0 -15 -14 31 -69 106
-93 127 -32 28 -51 29 -51 3 0 -11 -5 -20 -12 -20 -9 0 -9 -3 0 -12 18 -18 14
-30 -8 -23 -11 4 -20 2 -20 -4 0 -6 5 -11 10 -11 6 0 10 -7 10 -15 0 -14 -10
-18 -27 -12 -5 1 -7 5 -6 8 1 4 -7 5 -18 2 -26 -7 -36 -32 -18 -44 11 -7 11
-9 1 -9 -14 0 -42 -24 -42 -35 0 -6 -59 -85 -71 -95 -4 -3 -10 -16 -14 -29 -4
-14 -16 -34 -26 -45 -11 -11 -19 -27 -19 -35 0 -9 -9 -27 -20 -41 -11 -14 -20
-31 -20 -37 0 -7 -4 -13 -9 -13 -5 0 -23 -11 -39 -25 -30 -25 -127 -42 -138
-23 -8 13 -41 0 -71 -28 -14 -13 -29 -24 -32 -24 -4 0 -7 -12 -6 -27 0 -21 -5
-29 -22 -31 -12 -2 -33 -15 -48 -30 l-26 -26 4 24 c2 14 2 19 0 13 -5 -16 -20
-17 -28 -3 -10 17 -37 -10 -32 -31 7 -24 -16 -41 -45 -35 -34 8 -101 -41 -108
-79 -4 -20 -8 -26 -13 -17 -12 18 -25 15 -49 -13 -16 -18 -25 -22 -34 -14 -10
8 -22 7 -44 -4 -34 -17 -37 -12 -15 21 14 19 14 21 1 16 -8 -3 -18 -15 -21
-25 -4 -11 -17 -31 -31 -46 l-24 -26 -19 22 c-21 24 -31 27 -31 7 0 -24 -28
-27 -36 -3 -7 21 -8 20 -15 -8 -6 -20 -4 -36 6 -52 17 -26 20 -53 5 -53 -10 0
-14 14 -11 38 1 6 -5 12 -14 12 -9 0 -18 6 -21 14 -5 12 -10 12 -35 -2 -16
-10 -29 -24 -29 -34 0 -9 -3 -18 -7 -20 -23 -10 -63 -88 -63 -121 0 -38 -8
-45 -27 -26 -8 8 -11 1 -10 -25 1 -52 -19 -68 -43 -36 -11 14 -20 20 -20 13 0
-6 6 -18 14 -26 10 -9 11 -18 5 -24 -7 -7 -5 -16 5 -26 15 -14 15 -17 -1 -25
-11 -7 -17 -24 -19 -53 -3 -86 -3 -86 -17 -68 -11 15 -15 13 -34 -16 -21 -32
-22 -65 -2 -91 5 -6 11 -35 15 -65 5 -45 3 -58 -11 -73 -10 -9 -21 -32 -25
-49 l-8 -32 -1 30 c-1 17 -6 37 -11 45 -10 16 -12 7 -14 -75 -1 -34 -4 -39
-20 -37 -17 3 -18 1 -7 -12 7 -8 19 -12 27 -9 22 8 18 -43 -5 -66 -10 -10 -22
-28 -26 -40 -3 -12 -11 -21 -17 -21 -6 0 -7 -9 -3 -22 4 -13 8 -42 10 -66 3
-50 13 -66 22 -34 3 12 9 22 14 22 11 0 12 -40 1 -57 -12 -20 -57 8 -56 35 0
12 -5 22 -13 22 -19 0 -26 25 -14 48 9 17 8 21 -6 24 -17 3 -19 8 -29 101 -4
31 -10 57 -15 57 -5 0 -6 13 -3 29 5 23 2 32 -16 41 -16 9 -20 18 -16 35 7 29
-11 82 -31 89 -8 4 -13 13 -9 21 3 8 3 15 -1 15 -13 0 -32 -37 -34 -65 -1 -29
-1 -29 -8 -5 -5 14 -2 41 6 64 12 35 11 40 -4 51 -14 11 -19 10 -29 -3 -9 -13
-12 -13 -20 -1 -4 8 -10 23 -11 34 -2 11 -8 22 -13 23 -6 2 -10 10 -10 19 0
10 -6 12 -20 8 -15 -5 -20 -2 -20 12 0 14 -3 13 -13 -6 -15 -30 -33 -28 -30 5
1 15 -4 24 -13 24 -8 0 -14 5 -14 10 0 6 -4 10 -10 10 -5 0 -10 -7 -10 -16 0
-8 -4 -12 -10 -9 -5 3 -7 0 -4 -8 3 -8 1 -18 -5 -22 -6 -3 -11 -2 -11 2 0 5
-10 9 -22 9 -29 1 -84 -39 -91 -66 -4 -17 0 -20 24 -20 16 0 29 -4 29 -10 0
-5 15 -16 33 -25 42 -20 60 -50 59 -97 -2 -47 -40 -87 -123 -129 -53 -27 -73
-32 -149 -34 -86 -2 -87 -2 -104 26 -19 32 -23 33 -81 19 -88 -22 -190 -40
-263 -46 -42 -3 -90 -12 -107 -18 -16 -7 -61 -23 -100 -35 -38 -13 -85 -30
-104 -38 -19 -9 -46 -15 -60 -16 -14 0 -37 -7 -50 -16 -20 -13 -52 -16 -151
-16 -118 0 -128 2 -179 28 -48 26 -55 27 -63 13 -5 -9 -15 -16 -22 -16 -7 0
-21 -9 -30 -19 -14 -16 -15 -23 -6 -41 6 -11 9 -29 7 -38 -3 -13 -28 8 -95 78
-87 91 -109 128 -82 145 5 3 10 10 10 15 0 13 -79 52 -90 45 -11 -7 8 -55 22
-55 4 0 8 -11 8 -24 0 -14 4 -28 10 -31 6 -3 10 -17 10 -31 0 -14 10 -44 22
-67 33 -65 36 -72 43 -110 4 -20 13 -41 21 -48 8 -6 14 -18 14 -26 0 -8 5 -11
10 -8 6 3 10 0 10 -9 0 -8 -6 -16 -12 -18 -8 -3 -1 -12 15 -22 15 -10 27 -25
27 -33 0 -12 32 -80 48 -103 2 -3 11 4 19 15 15 19 15 19 10 -9 -6 -35 0 -56
17 -56 7 0 11 22 11 60 0 40 -4 60 -12 60 -8 0 -11 16 -8 52 3 33 0 56 -8 61
-9 7 -9 10 1 14 6 2 12 16 12 29 0 15 6 24 15 24 14 0 69 66 78 93 5 15 55
-17 64 -40 9 -24 -59 -83 -97 -83 -16 0 -30 -2 -30 -5 0 -3 32 -38 70 -78 39
-40 68 -65 65 -57 -3 9 1 24 8 34 12 17 14 12 15 -42 0 -52 5 -66 26 -87 14
-14 26 -31 26 -38 0 -7 9 -23 20 -37 11 -14 20 -31 20 -38 0 -7 7 -20 15 -28
8 -9 15 -23 15 -32 0 -12 -6 -9 -18 11 -9 15 -20 27 -24 27 -5 0 -8 7 -8 15 0
8 -4 15 -10 15 -5 0 -10 7 -10 15 0 8 -4 15 -10 15 -14 0 -12 -27 3 -33 10 -4
10 -7 0 -18 -15 -16 -17 -65 -3 -74 6 -3 10 -22 10 -41 0 -19 4 -34 9 -34 19
0 20 18 7 69 -16 61 -6 66 23 11 26 -50 26 -68 1 -94 -16 -18 -18 -30 -13 -79
3 -31 10 -57 14 -57 5 0 9 -20 9 -44 0 -24 3 -52 7 -62 6 -16 7 -16 14 2 6 14
8 10 8 -18 1 -20 4 -45 7 -55 6 -16 5 -16 -9 2 -14 17 -18 18 -27 5 -14 -21
-12 -30 4 -30 13 0 26 -20 26 -42 0 -6 -9 -8 -20 -5 -13 3 -20 0 -20 -10 0 -9
6 -13 14 -10 18 7 40 -44 32 -71 -5 -14 0 -25 15 -36 19 -13 20 -17 9 -31 -11
-14 -10 -17 7 -21 20 -6 24 -38 8 -64 -11 -17 4 -50 21 -43 7 3 14 0 14 -6 0
-6 -7 -11 -15 -11 -11 0 -15 -12 -15 -47 0 -32 3 -43 9 -34 5 8 7 19 5 25 -2
6 7 24 21 40 18 21 25 25 25 13 0 -10 -4 -17 -10 -17 -5 0 -10 -4 -10 -10 0
-5 7 -10 15 -10 20 0 37 -35 33 -68 -2 -21 1 -27 17 -27 22 0 65 -33 65 -51 0
-18 -35 -45 -46 -35 -14 14 -46 -13 -38 -33 8 -20 23 -21 31 -1 5 14 8 13 19
-4 8 -11 28 -29 44 -41 l30 -21 -7 62 c-6 57 -5 62 11 56 10 -4 20 -7 22 -7 2
0 4 -11 4 -24 0 -54 11 -84 30 -79 27 7 38 -36 14 -54 -16 -12 -17 -15 -4 -23
21 -13 27 -12 34 6 3 8 10 13 15 9 10 -6 7 -24 -11 -62 -6 -12 -7 -30 -3 -40
8 -17 8 -17 12 0 6 22 20 22 32 -2 6 -10 26 -28 46 -40 25 -14 35 -27 35 -44
0 -25 25 -55 37 -44 3 4 0 14 -8 23 -8 9 -14 22 -14 28 -1 6 -5 19 -9 29 -11
23 0 49 19 45 9 -2 17 -7 18 -13 1 -5 14 -23 30 -38 29 -29 31 -51 2 -27 -27
22 -30 0 -4 -24 33 -30 69 -50 69 -37 0 5 -4 13 -10 16 -5 3 -10 11 -10 17 0
7 9 2 20 -10 16 -17 18 -26 10 -47 -13 -33 -13 -45 0 -45 6 0 10 12 10 28 l1
27 24 -30 c22 -26 25 -27 31 -11 5 13 1 24 -12 35 -11 9 -23 25 -27 35 -6 15
-2 13 17 -7 14 -15 33 -27 42 -27 15 0 14 3 -5 21 -33 31 -18 34 28 5 49 -31
54 -32 46 -5 -6 18 -4 20 14 14 12 -4 21 -2 21 4 0 6 7 11 16 11 10 0 14 6 10
15 -7 19 8 20 23 1 9 -11 8 -18 -4 -30 -19 -19 -16 -67 4 -74 10 -3 12 3 7 29
-6 27 -5 30 4 16 9 -14 15 -15 32 -6 17 9 23 8 30 -5 5 -9 16 -16 23 -16 8 0
15 -7 15 -15 0 -18 -12 -19 -28 -3 -9 9 -12 9 -12 1 0 -7 5 -15 10 -18 8 -5 7
-11 0 -20 -9 -11 -6 -14 17 -12 25 2 28 -1 25 -28 -2 -36 29 -75 81 -100 22
-10 37 -25 39 -38 2 -15 10 -22 25 -22 12 0 29 -9 37 -20 13 -17 15 -17 16 -3
0 9 -6 18 -12 21 -10 4 -10 7 0 18 9 9 12 10 12 1 0 -7 7 -12 15 -12 9 0 15 6
13 14 -2 8 1 15 6 14 5 0 12 6 17 13 9 15 19 9 23 -13 1 -7 5 -19 9 -26 5 -6
5 -17 2 -22 -3 -5 -1 -10 5 -10 7 0 10 -7 6 -15 -3 -9 5 -21 22 -32 15 -10 29
-20 32 -23 13 -14 61 -40 75 -40 8 0 24 -9 35 -20 18 -18 20 -18 29 -2 9 15
11 15 30 -2 11 -10 18 -22 15 -27 -3 -5 10 -22 28 -38 43 -38 33 -48 -16 -15
-48 33 -43 11 6 -29 38 -31 98 -43 98 -20 0 17 10 16 34 -2 20 -15 16 -19 -16
-16 -9 1 -24 -12 -34 -29 -20 -33 -38 -38 -52 -13 -10 17 -42 12 -42 -8 0 -8
4 -8 15 1 12 10 16 9 21 -5 5 -13 14 -15 40 -10 25 4 34 2 34 -7 0 -20 -43
-36 -89 -33 -29 2 -41 -2 -41 -11 0 -8 10 -15 23 -15 46 -3 65 -6 78 -15 8 -5
21 -7 30 -6 9 2 19 -4 22 -12 4 -9 14 -12 26 -9 14 4 21 1 21 -9 0 -24 37 -51
61 -45 29 8 65 -10 78 -39 6 -13 17 -24 26 -24 18 0 20 17 3 22 -6 2 -8 10 -4
16 11 17 26 15 26 -5 0 -14 2 -14 20 2 18 17 20 17 26 1 6 -15 16 -17 70 -12
34 3 72 11 84 18 13 8 23 9 28 3 10 -14 133 -17 149 -4 10 9 13 8 13 -5 0 -19
26 -22 34 -3 3 9 8 7 15 -5 7 -9 19 -14 30 -11 10 3 22 0 25 -6 4 -6 17 -11
30 -11 28 0 61 -34 50 -51 -4 -7 1 -18 12 -27 18 -13 17 -14 -9 -8 l-28 7 17
-27 c14 -21 23 -25 46 -20 20 4 28 1 29 -9 3 -30 4 -35 9 -33 3 1 15 -4 27
-11 18 -9 27 -9 43 1 17 11 22 11 29 -1 5 -8 16 -11 24 -8 11 4 13 0 10 -14
-3 -10 -12 -19 -20 -19 -25 0 -13 -73 15 -85 12 -5 22 -13 22 -18 0 -5 8 -6
19 -2 11 3 28 -3 42 -14 19 -16 22 -22 12 -32 -20 -20 -15 -26 17 -21 17 2 30
8 30 13 0 5 9 9 20 9 11 0 20 -5 20 -11 0 -6 -9 -13 -20 -16 -11 -3 -20 -9
-20 -14 0 -10 48 -6 90 7 l25 8 -25 7 c-18 5 -11 7 28 8 33 1 51 -3 47 -9 -3
-5 -13 -10 -21 -10 -8 0 -13 -4 -10 -9 21 -33 -265 -54 -724 -55 -146 -1 -294
3 -330 7 -36 4 -90 9 -120 12 -96 10 -264 46 -281 61 -11 10 -18 11 -26 3 -9
-9 -20 -8 -45 1 -18 7 -58 18 -88 25 -113 27 -217 56 -280 79 -36 13 -137 50
-225 81 -88 32 -191 72 -230 90 -258 123 -669 331 -705 359 -8 6 -50 29 -93
51 -88 45 -161 106 -176 148 -10 27 -34 35 -58 19 -7 -5 -24 -36 -37 -70 -13
-34 -33 -74 -43 -89 -11 -16 -34 -55 -52 -87 -42 -76 -53 -86 -90 -86 -67 0
-127 -42 -137 -96 -7 -40 -15 -47 -79 -63 -70 -17 -129 -54 -162 -101 -15 -22
-36 -40 -45 -40 -10 0 -48 12 -85 26 -74 28 -109 31 -309 21 -87 -5 -136 -12
-173 -27 -43 -17 -56 -18 -74 -8 -12 7 -53 15 -92 18 l-70 5 -5 52 c-7 66 -51
133 -100 150 -22 8 -60 11 -100 8 l-66 -6 -29 41 c-37 49 -87 84 -155 106 -65
21 -199 15 -314 -15 -55 -15 -82 -18 -86 -10 -4 5 -5 32 -2 58 3 39 0 52 -19
75 -20 23 -36 29 -102 38 -67 9 -81 8 -103 -7 -30 -19 -34 -17 -115 67 -32 34
-53 48 -72 48 l-27 0 0 -805 0 -805 3064 0 3064 0 30 48 c48 74 122 228 221
462 51 118 99 233 109 255 9 22 35 67 57 100 22 33 49 77 60 97 19 36 35 49
35 28 0 -5 -3 -10 -7 -10 -10 0 -33 -49 -33 -68 0 -8 -13 -37 -28 -65 -27 -50
-152 -330 -152 -340 0 -3 -20 -48 -45 -101 -25 -53 -45 -99 -45 -101 0 -11
-62 -138 -104 -214 -25 -46 -46 -85 -46 -87 0 -2 860 -4 1910 -4 l1910 0 0
469 0 468 -157 -1 c-87 -1 -167 2 -178 7 -11 6 -51 33 -90 62 -87 65 -115 79
-190 99 -52 13 -69 13 -125 2 -36 -8 -112 -14 -170 -14 -58 0 -194 -7 -304
-16 -221 -19 -248 -16 -389 36 -217 80 -338 104 -447 89 -39 -5 -83 -8 -98 -5
-74 12 -131 29 -164 51 -21 12 -40 23 -42 23 -3 0 -29 14 -58 32 -47 28 -64
32 -146 36 -67 3 -97 1 -105 -8 -9 -9 -9 -14 -1 -17 6 -2 20 -11 30 -19 18
-14 18 -15 -6 -8 -14 4 -27 10 -30 13 -3 4 -32 20 -64 36 -33 15 -89 53 -125
84 -69 58 -201 191 -201 202 0 3 -9 17 -21 30 l-21 24 8 -29 c5 -21 4 -27 -5
-22 -6 4 -11 24 -11 44 0 20 -4 55 -9 77 -10 43 -18 95 -30 190 -5 33 -11 67
-15 76 -5 11 -1 22 12 30 11 8 19 25 18 39 -1 20 4 25 24 25 14 1 51 13 82 28
55 26 57 29 51 58 -5 25 -2 31 16 36 11 3 21 11 21 18 0 7 7 15 15 19 12 4 14
0 9 -22 -6 -24 -3 -22 27 16 18 23 37 42 41 42 11 0 43 62 40 78 -2 6 4 12 13
12 9 0 15 9 15 24 0 14 5 28 10 31 6 3 10 16 10 28 0 12 18 44 40 71 22 26 41
53 41 60 5 42 8 54 23 81 l16 30 0 -32 c0 -18 4 -33 9 -33 14 0 24 56 16 90
-4 19 -3 30 4 30 6 0 11 -7 11 -16 0 -8 5 -12 10 -9 13 8 13 62 0 70 -7 4 -8
11 -1 18 5 7 14 31 20 55 7 23 16 40 20 37 9 -5 16 56 34 279 3 39 10 63 21
71 9 7 16 19 16 27 0 15 19 69 40 113 6 11 11 59 13 107 1 48 6 90 9 93 4 4 4
22 1 41 -3 19 -1 45 5 57 6 12 13 31 15 42 4 18 5 18 6 -2 2 -38 21 -26 22 15
4 95 0 137 -15 148 -9 6 -16 22 -16 35 0 13 -9 43 -20 67 -10 23 -17 42 -15
42 6 0 -22 74 -47 127 -16 32 -18 46 -10 56 9 10 7 22 -7 48 -11 20 -17 46
-14 61 3 14 0 29 -6 32 -6 4 -11 15 -11 25 0 10 -9 30 -21 45 -16 20 -18 30
-10 40 8 10 6 17 -9 31 -21 19 -26 41 -11 47 14 5 15 40 2 74 -9 23 -17 31
-30 27 -22 -6 -28 2 -32 42 -3 24 0 30 14 29 10 -1 17 5 17 17 0 11 5 19 10
19 6 0 10 7 10 16 0 8 -4 13 -9 10 -14 -9 -41 4 -41 20 0 8 5 14 11 14 8 0 8
4 1 13 -16 21 -30 106 -33 212 -1 39 -6 97 -11 130 -27 176 -128 506 -128 418
0 -12 -3 -29 -7 -39 -4 -12 -3 -15 5 -10 8 5 12 -1 12 -18 0 -14 5 -28 10 -31
6 -3 10 -19 10 -35 0 -22 -4 -28 -15 -24 -8 4 -15 13 -15 21 0 11 -5 13 -17 7
-10 -4 -35 -8 -55 -8 -37 0 -48 -9 -28 -21 6 -3 10 -11 10 -17 0 -6 -9 -3 -19
6 -11 10 -25 15 -31 11 -6 -4 -23 5 -37 19 -14 14 -30 26 -34 26 -5 0 -9 7 -9
15 0 8 -8 15 -17 15 -10 0 -43 25 -73 55 -30 31 -68 68 -84 83 -15 15 -39 47
-52 72 -12 25 -32 56 -44 70 -49 60 -68 97 -58 114 9 16 13 13 34 -18 14 -20
29 -36 34 -36 4 0 16 -3 25 -6 9 -4 15 -3 14 2 -5 27 4 36 13 14 6 -14 10 -29
9 -33 0 -4 10 -19 24 -33 21 -21 29 -23 40 -14 12 10 15 10 15 -1 0 -16 55
-43 69 -35 5 4 21 1 35 -5 19 -9 29 -9 40 0 11 9 15 8 19 -3 4 -9 14 -12 26
-9 12 3 31 -4 47 -16 25 -19 29 -20 37 -6 5 9 5 24 1 33 -4 9 -8 19 -9 22 -1
3 -9 21 -17 39 -16 35 -14 61 4 61 5 0 6 -5 3 -10 -3 -6 1 -13 10 -16 8 -4 22
-18 31 -33 10 -18 13 -20 10 -6 -9 36 -38 378 -38 452 0 73 9 150 20 168 10
16 16 84 17 177 0 80 2 88 23 99 26 14 29 37 6 46 -12 4 -14 14 -9 43 6 34 4
38 -19 44 -22 5 -24 9 -17 34 7 24 5 31 -19 47 -18 12 -26 25 -22 37 3 11 -9
31 -33 55 -21 21 -48 54 -60 74 -13 19 -37 49 -54 66 -17 18 -31 39 -31 47 0
9 -5 16 -11 16 -5 0 -7 5 -3 11 4 7 12 2 23 -14 18 -30 41 -43 41 -23 0 8 -14
43 -32 77 -18 35 -34 78 -35 94 -2 17 -8 32 -13 33 -6 2 -10 15 -10 28 0 13
-5 24 -11 24 -6 0 -8 7 -5 16 4 10 -4 30 -19 50 -23 30 -24 34 -8 49 9 9 12
20 7 23 -5 4 -14 21 -20 37 -6 17 -16 29 -22 27 -14 -2 -15 8 -3 27 6 10 4 25
-5 43 -8 16 -12 37 -9 47 3 10 -3 29 -13 42 -10 13 -29 47 -42 74 -14 28 -31
54 -38 58 -10 7 -10 12 -1 23 9 11 9 14 -1 14 -9 0 -9 4 -2 13 12 14 -2 37
-33 55 -18 10 -19 11 -2 16 55 18 54 16 25 38 -26 18 -41 47 -18 33 6 -4 10 9
10 32 0 34 -5 40 -40 61 -23 13 -40 28 -39 35 4 33 -2 57 -15 57 -21 0 -48 30
-42 47 3 7 -1 16 -9 19 -8 4 -15 12 -15 18 0 7 -11 18 -24 24 -14 6 -32 23
-42 37 -9 14 -22 25 -30 25 -7 0 -18 9 -24 20 -6 11 -21 20 -34 20 -14 0 -27
9 -34 24 -15 34 -44 66 -59 66 -7 0 -13 5 -13 10 0 6 -7 10 -15 10 -9 0 -20
11 -26 24 -8 17 -25 28 -56 35 -35 9 -42 15 -34 25 8 9 3 18 -19 34 -16 12
-36 22 -45 22 -9 0 -30 13 -48 30 -18 16 -41 30 -53 30 -13 0 -25 10 -33 26
-7 16 -18 24 -29 22 -22 -4 -52 21 -45 39 4 11 0 11 -22 3 -38 -15 -58 -13
-51 5 3 9 0 15 -10 15 -8 0 -17 7 -20 15 -7 18 -45 20 -63 3 -11 -11 -13 -10
-8 4 8 22 -2 29 -24 17 -14 -7 -17 -6 -13 4 6 17 -39 42 -62 33 -13 -5 -15 -2
-11 14 4 15 0 20 -14 20 -12 0 -16 5 -13 15 8 20 -10 19 -41 -1 -20 -13 -25
-14 -25 -3 0 20 -40 43 -52 31 -16 -16 -48 -2 -48 22 0 13 -3 25 -6 29 -11 11
-34 -5 -34 -23 0 -11 -4 -22 -10 -25 -6 -3 -10 5 -10 19 0 26 -18 45 -29 29
-3 -5 -14 -12 -24 -16 -14 -5 -16 -2 -11 18 4 15 2 25 -5 25 -6 0 -16 -20 -22
-45 -11 -45 -22 -55 -34 -34 -4 5 0 18 9 28 9 10 16 23 16 29 0 17 -40 15 -46
-3 -8 -20 -24 -9 -24 15 0 13 -5 17 -15 14 -19 -8 -29 -42 -16 -58 13 -15 -17
-86 -36 -86 -7 0 -22 -9 -33 -20 l-20 -20 27 -30 c27 -31 43 -38 43 -20 0 6
-6 10 -14 10 -8 0 -16 6 -19 13 -7 19 12 47 33 47 10 0 20 5 22 12 4 10 48 21
48 12 0 -2 -8 -19 -17 -39 -15 -31 -15 -37 -3 -46 13 -8 11 -12 -7 -28 -13
-11 -23 -24 -23 -29 0 -18 -27 -62 -34 -55 -3 3 1 17 10 31 11 17 13 27 5 35
-8 8 -11 5 -11 -10 0 -11 -7 -23 -15 -27 -8 -3 -15 -1 -15 4 0 6 -8 18 -19 29
-18 18 -18 18 -30 -1 -7 -11 -15 -17 -18 -14 -4 3 4 17 17 31 23 24 23 25 5
45 -18 20 -17 21 29 65 44 43 46 46 31 68 -13 21 -13 25 1 45 17 25 16 26 -20
12 -31 -11 -32 -20 -6 -48 23 -25 26 -36 6 -29 -9 4 -16 -3 -20 -16 -5 -22
-43 -53 -53 -43 -3 3 -2 13 1 23 4 10 7 20 6 21 -1 2 7 10 17 18 11 8 13 13 6
14 -7 0 -22 -9 -34 -21 -16 -16 -20 -28 -14 -55 3 -21 2 -34 -5 -34 -5 0 -10
-7 -10 -15 0 -8 9 -15 20 -15 11 0 20 -7 20 -15 0 -8 -6 -15 -14 -15 -14 0
-29 -28 -25 -46 1 -5 -1 -17 -6 -27 -4 -9 -3 -23 2 -30 6 -6 13 -30 16 -52 6
-37 5 -39 -9 -20 -15 20 -15 20 -30 1 -8 -11 -14 -26 -14 -35 0 -31 -13 0 -14
34 -1 24 3 34 12 30 14 -5 15 4 3 23 -4 7 -14 12 -22 10 -11 -2 -14 9 -14 47
0 28 -4 50 -10 50 -5 0 -9 -12 -7 -26 2 -15 -4 -32 -14 -40 -16 -13 -17 -12
-11 10 4 17 -1 29 -19 46 -13 12 -24 30 -24 39 0 9 -4 16 -10 16 -5 0 -10 -9
-10 -20 0 -10 -5 -31 -12 -45 -15 -34 2 -55 28 -34 16 13 17 12 11 -13 -6 -22
-4 -26 7 -22 27 10 51 -60 36 -101 l-8 -20 -7 20 c-4 11 -9 26 -11 33 -2 7 -9
10 -15 6 -7 -4 -9 0 -5 13 5 17 2 21 -19 21 -21 0 -25 -5 -25 -29 0 -21 -4
-27 -15 -23 -8 4 -15 12 -15 20 0 8 -7 14 -15 14 -20 0 -19 -12 4 -54 23 -40
19 -49 -15 -34 -20 10 -57 69 -70 113 -1 6 -7 24 -12 42 -9 27 -7 32 9 36 15
4 21 -1 25 -22 6 -31 39 -57 50 -40 3 6 -2 19 -11 29 -10 11 -15 28 -12 40 3
11 1 20 -5 20 -5 0 -6 5 -3 10 10 16 25 1 25 -25 0 -58 41 -27 58 44 6 25 9
48 6 53 -9 14 -22 9 -27 -12 -3 -11 -10 -20 -16 -20 -8 0 -9 6 -1 19 5 11 6
22 2 25 -15 9 -36 -13 -37 -36 0 -13 -5 -22 -12 -20 -7 1 -13 -5 -13 -14 0
-11 -6 -14 -20 -9 -12 4 -28 1 -37 -7 -13 -10 -17 -11 -21 0 -3 10 -7 10 -18
1 -17 -14 -18 -36 -1 -42 7 -4 6 -6 -5 -6 -9 -1 -18 -7 -21 -13 -3 -10 -10 -8
-25 5 -14 13 -22 15 -27 7 -4 -6 0 -17 8 -23 15 -11 22 -41 19 -79 -2 -22 -22
-24 -22 -3 0 9 -9 15 -21 15 -12 0 -29 8 -38 18 -9 9 -28 23 -43 31 -16 8 -28
19 -28 24 0 14 -49 57 -66 57 -23 0 -16 -19 21 -53 38 -35 43 -47 20 -47 -20
0 -8 -27 16 -33 27 -7 24 -26 -6 -37 -29 -11 -31 -22 -10 -40 8 -7 15 -19 15
-26 0 -8 9 -14 20 -14 11 0 20 -4 20 -10 0 -5 -16 -10 -35 -10 -23 0 -35 5
-35 14 0 8 -7 17 -16 20 -8 3 -12 11 -9 16 4 7 -2 9 -19 4 -23 -5 -26 -3 -26
18 0 13 -5 29 -12 36 -9 9 -9 12 -1 12 7 0 15 -9 18 -20 3 -11 13 -20 21 -20
36 0 -6 65 -50 76 -35 9 -33 24 4 24 17 0 30 2 30 5 0 12 -42 45 -50 40 -6 -4
-10 3 -10 14 0 27 8 26 37 -1 28 -26 39 -18 25 20 -6 19 -6 35 0 46 7 12 7 21
-1 29 -12 12 -14 46 -5 71 8 20 33 21 40 1 4 -8 10 -15 15 -15 6 0 5 8 -1 19
-5 11 -10 25 -10 31 0 15 43 30 51 17 4 -5 12 0 18 12 14 25 5 45 -15 37 -13
-5 -18 5 -15 32 2 16 -16 16 -26 -1z m994 -129 c11 -12 11 -18 2 -24 -16 -10
-39 24 -34 50 6 32 7 33 12 11 3 -11 12 -27 20 -37z m-1097 28 c0 -8 -4 -17
-9 -21 -12 -7 -24 12 -16 25 9 15 25 12 25 -4z m1205 5 c3 -5 1 -12 -5 -16 -5
-3 -10 1 -10 9 0 18 6 21 15 7z m-1236 -54 c15 -38 17 -70 5 -74 -7 -2 -15 9
-19 24 -3 15 -11 30 -16 34 -11 7 -1 39 12 39 5 0 13 -10 18 -23z m1052 -11
c-6 -8 -11 -18 -10 -22 4 -23 -3 -34 -20 -34 -29 0 -24 43 8 62 30 17 39 15
22 -6z m55 2 c4 -6 -1 -17 -12 -25 -17 -12 -17 -14 -1 -30 11 -11 17 -13 17
-5 0 7 7 12 15 12 8 0 15 -5 15 -10 0 -18 -32 -60 -45 -60 -8 0 -17 -9 -20
-20 -10 -30 -25 -24 -25 10 0 23 5 30 19 30 11 0 23 5 26 10 3 6 -3 10 -14 10
-15 0 -19 6 -16 23 9 60 25 81 41 55z m-1206 -68 c0 -11 -4 -20 -10 -20 -5 0
-10 9 -10 20 0 11 5 20 10 20 6 0 10 -9 10 -20z m1570 10 c0 -5 -5 -10 -11
-10 -5 0 -7 5 -4 10 3 6 8 10 11 10 2 0 4 -4 4 -10z m-1490 -39 c0 -10 -6 -24
-14 -31 -8 -6 -12 -18 -9 -26 3 -8 0 -14 -7 -14 -8 0 -10 8 -5 28 5 15 8 35 9
45 1 23 26 22 26 -2z m1050 -3 c0 -13 -4 -29 -9 -36 -6 -10 -10 -8 -14 8 -6
25 1 50 14 50 5 0 9 -10 9 -22z m-1260 -42 c0 -5 -7 -3 -15 4 -8 7 -12 17 -9
22 7 10 24 -9 24 -26z m1395 -3 c-3 -15 -11 -31 -17 -34 -6 -4 -10 -19 -10
-33 0 -20 -4 -24 -13 -16 -7 6 -21 7 -30 3 -15 -5 -17 -3 -12 11 4 10 7 26 7
36 0 22 28 53 41 45 5 -4 9 -1 9 4 0 6 7 11 16 11 13 0 15 -6 9 -27z m73 -19
c-10 -10 -28 6 -28 24 0 15 1 15 17 -1 9 -9 14 -19 11 -23z m72 32 c0 -3 -4
-8 -10 -11 -5 -3 -10 -1 -10 4 0 6 5 11 10 11 6 0 10 -2 10 -4z m-36 -31 c-4
-8 -8 -15 -10 -15 -2 0 -4 7 -4 15 0 8 4 15 10 15 5 0 7 -7 4 -15z m-1427 -31
c15 2 34 5 41 7 8 2 21 -6 29 -18 9 -13 11 -23 5 -23 -6 0 -14 5 -17 10 -3 6
-13 10 -22 10 -11 0 -14 -6 -9 -25 8 -31 0 -46 -19 -39 -8 4 -13 9 -10 13 2 4
-11 25 -30 47 -19 21 -35 44 -34 49 0 6 8 0 18 -12 14 -16 27 -22 48 -19z
m1233 12 c0 -7 -6 -19 -14 -25 -18 -15 -30 11 -13 28 15 15 27 14 27 -3z
m-164 -64 c-12 -11 -18 7 -10 30 l8 23 4 -23 c2 -13 1 -26 -2 -30z m-80 11
c-10 -10 -19 5 -10 18 6 11 8 11 12 0 2 -7 1 -15 -2 -18z m-578 -50 c-7 -8 -5
-19 6 -35 21 -29 20 -38 -1 -38 -20 0 -73 42 -73 58 0 5 11 13 25 16 25 6 34
29 15 41 -5 3 -10 12 -10 18 0 7 11 -1 24 -18 17 -21 21 -34 14 -42z m182 57
c0 -5 -4 -10 -10 -10 -5 0 -10 5 -10 10 0 6 5 10 10 10 6 0 10 -4 10 -10z
m-703 -22 c-3 -8 -6 -5 -6 6 -1 11 2 17 5 13 3 -3 4 -12 1 -19z m1273 2 c0 -5
-4 -10 -10 -10 -5 0 -10 5 -10 10 0 6 5 10 10 10 6 0 10 -4 10 -10z m105 0 c3
-5 1 -10 -4 -10 -6 0 -11 5 -11 10 0 6 2 10 4 10 3 0 8 -4 11 -10z m-711 -6
c23 -9 20 -44 -3 -44 -11 0 -27 3 -36 6 -14 6 -14 8 1 25 19 22 17 21 38 13z
m-507 -26 c-3 -8 -6 -5 -6 6 -1 11 2 17 5 13 3 -3 4 -12 1 -19z m1236 7 c-3
-9 -8 -14 -10 -11 -3 3 -2 9 2 15 9 16 15 13 8 -4z m-1103 -15 c0 -5 -2 -10
-4 -10 -3 0 -8 5 -11 10 -3 6 -1 10 4 10 6 0 11 -4 11 -10z m-320 -10 c0 -5
-4 -10 -10 -10 -5 0 -10 5 -10 10 0 6 5 10 10 10 6 0 10 -4 10 -10z m916 -42
c1 -27 -3 -48 -7 -48 -5 0 -9 5 -9 11 0 5 -4 7 -10 4 -6 -4 -7 6 -4 24 4 18 2
37 -5 45 -10 11 -7 14 11 12 20 -1 23 -6 24 -48z m-1155 19 c-1 -12 -15 -9
-19 4 -3 6 1 10 8 8 6 -3 11 -8 11 -12z m1054 -37 c8 0 15 -7 15 -15 0 -8 -6
-15 -13 -15 -16 0 -67 54 -67 71 0 8 11 2 25 -14 14 -15 32 -27 40 -27z m-562
-3 c-7 -11 -33 13 -33 29 0 11 5 10 18 -3 11 -10 17 -22 15 -26z m481 -11 c24
-38 20 -40 -19 -10 -19 14 -35 33 -35 41 0 20 32 1 54 -31z m-334 24 c0 -5 -7
-10 -16 -10 -8 0 -12 5 -9 10 3 6 10 10 16 10 5 0 9 -4 9 -10z m240 -25 c19
-20 20 -25 7 -25 -20 0 -49 29 -42 41 8 12 8 12 35 -16z m396 -57 c8 -16 14
-32 12 -34 -9 -8 -48 38 -48 57 0 26 16 16 36 -23z m-456 11 c0 -6 -4 -7 -10
-4 -5 3 -10 11 -10 16 0 6 5 7 10 4 6 -3 10 -11 10 -16z m500 11 c0 -5 -4 -10
-10 -10 -5 0 -10 5 -10 10 0 6 5 10 10 10 6 0 10 -4 10 -10z m117 4 c-3 -3
-12 -4 -19 -1 -8 3 -5 6 6 6 11 1 17 -2 13 -5z m152 -13 c9 -6 10 -11 2 -15
-13 -8 -31 1 -31 15 0 11 11 11 29 0z m-559 -11 c0 -6 10 -15 23 -21 24 -11
53 -59 35 -59 -6 0 -7 -11 -4 -25 6 -24 5 -24 -31 10 -37 35 -40 64 -3 30 30
-28 24 -4 -11 38 -17 20 -26 37 -20 37 6 0 11 -5 11 -10z m620 1 c0 -13 -29
-35 -37 -28 -7 8 15 37 28 37 5 0 9 -4 9 -9z m-698 -30 c28 5 48 -13 48 -42 0
-16 5 -29 13 -29 8 0 7 -4 -3 -10 -24 -16 -31 -12 -28 18 2 21 -2 28 -19 30
-12 2 -29 15 -39 30 -14 22 -15 25 -1 14 8 -7 21 -12 29 -11z m225 -3 c-3 -8
-6 -5 -6 6 -1 11 2 17 5 13 3 -3 4 -12 1 -19z m151 0 c9 -9 12 -9 12 2 0 12 2
12 13 1 10 -11 10 -14 0 -18 -19 -7 -16 -21 12 -51 26 -28 38 -66 12 -40 -17
17 -77 105 -77 112 0 10 15 7 28 -6z m227 3 c3 -5 1 -12 -5 -16 -5 -3 -10 1
-10 9 0 18 6 21 15 7z m-895 -23 c0 -4 9 -10 20 -13 11 -3 25 -16 31 -28 9
-18 9 -20 -2 -9 -7 6 -20 12 -30 12 -9 0 -28 11 -42 24 l-26 24 25 -2 c13 0
24 -4 24 -8z m-79 -8 c5 0 9 -4 9 -10 0 -16 -26 -12 -41 7 -12 15 -12 16 4 10
10 -4 23 -7 28 -7z m179 -6 c0 -8 -4 -12 -10 -9 -5 3 -10 10 -10 16 0 5 5 9
10 9 6 0 10 -7 10 -16z m-920 -30 c14 -36 13 -39 -10 -19 -21 19 -27 45 -10
45 6 0 15 -12 20 -26z m1458 -20 c14 -15 14 -16 -3 -13 -10 2 -20 10 -23 17
-5 17 6 15 26 -4z m-98 -14 c0 -5 -4 -10 -10 -10 -5 0 -10 5 -10 10 0 6 5 10
10 10 6 0 10 -4 10 -10z m-630 -10 c0 -5 -9 -10 -21 -10 -11 0 -17 5 -14 10 3
6 13 10 21 10 8 0 14 -4 14 -10z m355 -28 c5 -14 4 -15 -6 -4 -7 6 -21 12 -32
12 -10 0 -16 4 -13 9 9 14 44 1 51 -17z m-105 7 c0 -5 -7 -9 -15 -9 -8 0 -15
-4 -15 -10 0 -18 -26 -10 -27 8 -1 14 6 19 28 20 16 0 29 -4 29 -9z m-275 -8
c3 -6 -4 -15 -15 -21 -13 -7 -20 -7 -20 0 0 5 5 10 11 10 5 0 7 5 4 10 -3 6
-2 10 4 10 5 0 12 -4 16 -9z m-845 -11 c0 -5 -7 -10 -15 -10 -8 0 -15 5 -15
10 0 6 7 10 15 10 8 0 15 -4 15 -10z m775 0 c3 -5 -1 -10 -9 -10 -9 0 -16 5
-16 10 0 6 4 10 9 10 6 0 13 -4 16 -10z m391 -5 c19 -14 19 -14 -2 -15 -12 0
-24 7 -28 15 -7 19 5 19 30 0z m-419 -82 c-6 -41 -12 -49 -29 -36 -13 10 -75
10 -85 -1 -3 -3 -15 -1 -25 5 -35 19 -3 33 69 32 61 -1 65 1 48 13 -17 12 -18
16 -5 24 22 14 32 1 27 -37z m138 27 c3 -6 -4 -10 -17 -10 -18 0 -20 2 -8 10
19 12 18 12 25 0z m-305 -13 c-27 -15 -36 -14 -25 2 3 6 16 11 28 11 21 0 21
-1 -3 -13z m367 7 c-3 -3 -12 -4 -19 -1 -8 3 -5 6 6 6 11 1 17 -2 13 -5z
m-137 -44 c-12 -8 -12 -10 3 -16 26 -10 11 -21 -23 -16 -28 4 -44 22 -19 22 5
0 8 4 4 9 -3 5 5 11 17 13 29 5 37 0 18 -12z m74 2 c2 -4 1 -14 -5 -22 -7 -13
-9 -12 -9 2 0 9 -6 19 -12 21 -8 3 -7 6 4 6 9 1 19 -3 22 -7z m-364 -156 c0
-2 -9 -6 -20 -9 -11 -3 -20 -1 -20 4 0 5 9 9 20 9 11 0 20 -2 20 -4z m-85
-326 c3 -5 1 -10 -4 -10 -6 0 -11 5 -11 10 0 6 2 10 4 10 3 0 8 -4 11 -10z
m2365 -21 c0 -6 -4 -7 -10 -4 -5 3 -10 11 -10 16 0 6 5 7 10 4 6 -3 10 -11 10
-16z m-76 -15 c24 -9 19 -21 -9 -21 -25 0 -31 7 -18 20 8 8 8 8 27 1z m69 -84
c-3 -12 -8 -19 -11 -16 -5 6 5 36 12 36 2 0 2 -9 -1 -20z m-56 4 c-3 -3 -12
-4 -19 -1 -8 3 -5 6 6 6 11 1 17 -2 13 -5z m-57 -144 c0 -5 -7 -7 -15 -4 -8 4
-15 8 -15 10 0 2 7 4 15 4 8 0 15 -4 15 -10z m-2840 -30 c0 -5 -4 -10 -10 -10
-5 0 -10 5 -10 10 0 6 5 10 10 10 6 0 10 -4 10 -10z m650 -104 c0 -2 -7 -9
-15 -16 -13 -11 -14 -10 -9 4 5 14 24 23 24 12z m-320 -124 c0 -4 -9 -13 -20
-20 -23 -14 -26 -8 -7 13 13 16 27 19 27 7z m3360 -32 c14 -11 19 -20 12 -20
-7 0 -22 9 -34 20 -28 26 -11 26 22 0z m-3037 -27 c-7 -2 -19 -2 -25 0 -7 3
-2 5 12 5 14 0 19 -2 13 -5z m2884 -45 c-3 -8 -6 -5 -6 6 -1 11 2 17 5 13 3
-3 4 -12 1 -19z m-3764 5 c-7 -2 -19 -2 -25 0 -7 3 -2 5 12 5 14 0 19 -2 13
-5z m617 -47 c0 -2 -7 -7 -16 -10 -8 -3 -12 -2 -9 4 6 10 25 14 25 6z m3150
-6 c0 -5 -4 -10 -10 -10 -5 0 -10 5 -10 10 0 6 5 10 10 10 6 0 10 -4 10 -10z
m-3913 -6 c-3 -3 -12 -4 -19 -1 -8 3 -5 6 6 6 11 1 17 -2 13 -5z m809 -20
c-11 -7 -22 -11 -25 -8 -3 3 3 12 13 20 11 7 22 11 25 8 3 -3 -3 -12 -13 -20z
m2954 -4 c-19 -13 -30 -13 -30 0 0 6 10 10 23 10 18 0 19 -2 7 -10z m-10 -50
c0 -5 -4 -10 -10 -10 -5 0 -10 5 -10 10 0 6 5 10 10 10 6 0 10 -4 10 -10z
m-2895 -20 c-3 -5 -11 -10 -16 -10 -6 0 -7 5 -4 10 3 6 11 10 16 10 6 0 7 -4
4 -10z m-135 -19 c0 -5 -7 -12 -16 -15 -14 -5 -15 -4 -4 9 14 17 20 19 20 6z
m2880 -6 c14 -16 10 -18 -14 -9 -9 3 -16 10 -16 15 0 14 16 11 30 -6z m-3100
-9 c0 -2 -8 -10 -17 -17 -16 -13 -17 -12 -4 4 13 16 21 21 21 13z m455 -26
c-3 -5 -11 -10 -16 -10 -6 0 -7 5 -4 10 3 6 11 10 16 10 6 0 7 -4 4 -10z
m-165 -30 c0 -5 -4 -10 -10 -10 -5 0 -10 5 -10 10 0 6 5 10 10 10 6 0 10 -4
10 -10z m2699 -30 c-28 -26 -40 -8 -13 21 12 13 21 16 28 9 6 -6 2 -16 -15
-30z m91 36 c0 -3 -4 -8 -10 -11 -5 -3 -10 -1 -10 4 0 6 5 11 10 11 6 0 10 -2
10 -4z m-310 -76 c0 -5 -4 -10 -10 -10 -5 0 -10 5 -10 10 0 6 5 10 10 10 6 0
10 -4 10 -10z m-2905 -20 c-3 -5 -13 -10 -21 -10 -8 0 -14 5 -14 10 0 6 9 10
21 10 11 0 17 -4 14 -10z m-575 -14 c0 -2 -7 -7 -16 -10 -8 -3 -12 -2 -9 4 6
10 25 14 25 6z m3580 0 c0 -3 -4 -8 -10 -11 -5 -3 -10 -1 -10 4 0 6 5 11 10
11 6 0 10 -2 10 -4z m-65 -26 c-3 -5 -11 -10 -16 -10 -6 0 -7 5 -4 10 3 6 11
10 16 10 6 0 7 -4 4 -10z m-2690 -70 c-3 -5 -10 -10 -16 -10 -5 0 -9 5 -9 10
0 6 7 10 16 10 8 0 12 -4 9 -10z m-905 -55 c0 -2 -14 -12 -31 -21 -17 -8 -28
-11 -24 -4 4 6 17 15 29 20 27 11 26 11 26 5z m645 -15 c-3 -5 -16 -15 -28
-21 l-22 -12 20 21 c21 22 41 30 30 12z m125 -29 c0 -5 -7 -12 -16 -15 -24 -9
-28 -7 -14 9 14 17 30 20 30 6z m-860 -35 c0 -2 -7 -6 -15 -10 -8 -3 -15 -1
-15 4 0 6 7 10 15 10 8 0 15 -2 15 -4z m50 -72 c0 -8 -4 -12 -10 -9 -5 3 -10
10 -10 16 0 5 5 9 10 9 6 0 10 -7 10 -16z m390 -34 c0 -5 -5 -10 -11 -10 -5 0
-7 5 -4 10 3 6 8 10 11 10 2 0 4 -4 4 -10z m256 -28 c-19 -38 -14 -77 14 -100
20 -16 21 -19 6 -31 -9 -7 -16 -21 -16 -30 0 -10 -7 -26 -15 -37 -14 -18 -14
-18 -15 0 0 12 -5 16 -14 13 -10 -4 -13 -1 -9 9 6 16 -12 20 -22 4 -3 -5 -12
-10 -18 -10 -7 1 -1 10 12 20 23 20 23 20 42 -1 11 -12 22 -19 25 -16 4 3 -1
14 -11 23 -15 16 -15 18 -1 26 24 13 21 41 -4 34 -11 -3 -29 -9 -40 -12 -27
-7 -25 2 7 45 16 20 28 38 28 41 1 3 6 15 13 28 18 32 35 27 18 -6z m94 18 c0
-5 -5 -10 -11 -10 -5 0 -7 5 -4 10 3 6 8 10 11 10 2 0 4 -4 4 -10z m-53 -42
c-3 -8 -6 -5 -6 6 -1 11 2 17 5 13 3 -3 4 -12 1 -19z m253 12 c0 -5 -4 -10
-10 -10 -5 0 -10 5 -10 10 0 6 5 10 10 10 6 0 10 -4 10 -10z m-345 -10 c-3 -5
-13 -10 -21 -10 -8 0 -14 5 -14 10 0 6 9 10 21 10 11 0 17 -4 14 -10z m-555
-50 c0 -5 -5 -10 -11 -10 -5 0 -7 5 -4 10 3 6 8 10 11 10 2 0 4 -4 4 -10z
m800 0 c0 -5 -6 -10 -14 -10 -8 0 -27 -18 -43 -40 -31 -44 -62 -65 -43 -29 6
11 18 23 26 26 8 3 14 10 14 15 0 11 40 47 53 48 4 0 7 -4 7 -10z m-320 -5 c0
-11 -40 -48 -46 -43 -3 4 3 15 13 26 18 20 33 27 33 17z m34 -55 c-8 -7 -24
24 -23 45 0 15 4 13 14 -10 7 -16 11 -32 9 -35z m-294 20 c0 -5 -4 -10 -10
-10 -5 0 -10 5 -10 10 0 6 5 10 10 10 6 0 10 -4 10 -10z m270 -48 c0 -12 -39
-52 -51 -52 -6 0 0 13 13 29 23 30 38 39 38 23z m171 -46 c5 -6 9 -15 9 -20 0
-6 -8 -2 -16 9 -11 14 -18 16 -21 8 -3 -7 -9 -13 -14 -13 -5 0 -2 15 8 33 15
27 18 29 21 12 2 -11 8 -24 13 -29z m-91 -16 c0 -4 -16 -18 -35 -31 -22 -15
-35 -32 -35 -46 0 -12 -3 -24 -7 -26 -5 -3 -8 10 -8 27 0 36 19 66 42 66 9 0
13 6 10 14 -4 10 0 12 14 9 10 -3 19 -9 19 -13z m290 0 c0 -5 -4 -10 -10 -10
-5 0 -10 -7 -10 -15 0 -23 -14 -18 -27 10 -10 24 -9 25 18 25 16 0 29 -4 29
-10z m-277 -37 c-6 -18 -53 -67 -53 -57 0 7 51 74 56 74 2 0 0 -8 -3 -17z
m227 -13 c0 -5 -5 -10 -11 -10 -5 0 -7 5 -4 10 3 6 8 10 11 10 2 0 4 -4 4 -10z
m-110 -50 c0 -5 -2 -10 -4 -10 -3 0 -8 5 -11 10 -3 6 -1 10 4 10 6 0 11 -4 11
-10z m3370 -10 c0 -5 -9 -10 -21 -10 -11 0 -17 5 -14 10 3 6 13 10 21 10 8 0
14 -4 14 -10z m-3283 -25 c-4 -8 -11 -15 -17 -15 -7 0 -7 6 0 21 13 23 26 19
17 -6z m-357 7 c0 -4 -5 -13 -11 -19 -6 -6 -9 -21 -7 -34 l3 -24 20 23 c33 37
37 25 8 -28 -15 -27 -30 -50 -34 -50 -20 0 -26 125 -6 133 19 8 27 8 27 -1z
m211 -113 c-12 -22 -17 -25 -19 -13 -5 23 20 68 29 53 4 -6 -1 -24 -10 -40z
m119 -19 c0 -5 -4 -10 -10 -10 -5 0 -10 5 -10 10 0 6 5 10 10 10 6 0 10 -4 10
-10z m62 -22 c-7 -7 -12 -8 -12 -2 0 14 12 26 19 19 2 -3 -1 -11 -7 -17z m-82
-22 c0 -3 -4 -8 -10 -11 -5 -3 -10 -1 -10 4 0 6 5 11 10 11 6 0 10 -2 10 -4z
m3480 -66 c0 -11 -7 -20 -15 -20 -8 0 -15 9 -15 20 0 11 7 20 15 20 8 0 15 -9
15 -20z m-91 -199 c-1 -22 -28 39 -28 64 0 14 4 9 14 -14 8 -18 15 -41 14 -50z
m-3519 -12 c0 -11 -4 -18 -10 -14 -5 3 -7 12 -3 20 7 21 13 19 13 -6z m3537
-81 c-3 -8 -6 -5 -6 6 -1 11 2 17 5 13 3 -3 4 -12 1 -19z m-3362 -35 c-4 -10
-7 -25 -8 -33 0 -8 -4 -21 -10 -27 -20 -26 -24 -12 -9 32 8 25 19 45 24 45 6
0 7 -8 3 -17z m15 -83 c0 -5 -5 -10 -11 -10 -5 0 -7 5 -4 10 3 6 8 10 11 10 2
0 4 -4 4 -10z m0 -29 c0 -21 -13 -41 -26 -41 -17 0 -17 5 -4 31 11 20 30 26
30 10z m3902 -23 c38 -18 35 -31 -4 -23 -39 9 -60 24 -52 37 6 10 10 9 56 -14z
m-37 -38 c10 -11 13 -20 7 -20 -6 0 -16 9 -22 20 -6 11 -9 20 -7 20 2 0 12 -9
22 -20z m-3745 -206 c0 -8 -4 -12 -10 -9 -5 3 -10 10 -10 16 0 5 5 9 10 9 6 0
10 -7 10 -16z m2212 -16 c-9 -9 -12 -7 -12 12 0 19 3 21 12 12 9 -9 9 -15 0
-24z m-2252 -28 c0 -5 -5 -10 -11 -10 -5 0 -7 5 -4 10 3 6 8 10 11 10 2 0 4
-4 4 -10z m2150 -51 c0 -5 -7 -9 -15 -9 -9 0 -15 9 -15 21 0 18 2 19 15 9 8
-7 15 -16 15 -21z m-2477 -19 c-5 -19 -23 -29 -23 -12 0 7 20 32 26 32 1 0 0
-9 -3 -20z m2427 -10 c0 -5 -2 -10 -4 -10 -3 0 -8 5 -11 10 -3 6 -1 10 4 10 6
0 11 -4 11 -10z m390 -140 c0 -5 -4 -10 -9 -10 -6 0 -13 5 -16 10 -3 6 1 10 9
10 9 0 16 -4 16 -10z m-250 -92 c0 -25 -3 -29 -10 -18 -13 20 -13 50 0 50 6 0
10 -15 10 -32z m-2100 -44 c0 -8 -4 -14 -10 -14 -5 0 -10 9 -10 21 0 11 5 17
10 14 6 -3 10 -13 10 -21z m1515 -43 c3 -5 1 -12 -5 -16 -5 -3 -10 1 -10 9 0
18 6 21 15 7z m-1417 -119 c2 -7 -3 -12 -12 -12 -9 0 -16 7 -16 16 0 17 22 14
28 -4z m3737 -12 c3 -5 1 -10 -4 -10 -6 0 -11 5 -11 10 0 6 2 10 4 10 3 0 8
-4 11 -10z m-1520 -87 c5 -13 13 -23 18 -23 4 0 5 5 2 10 -3 6 -3 15 1 21 10
16 65 -41 59 -62 -3 -9 1 -22 10 -29 8 -7 15 -19 15 -26 0 -17 -22 -18 -37 -3
-8 8 -13 5 -18 -10 -9 -29 -55 -71 -77 -71 -10 0 -18 -5 -18 -11 0 -5 -4 -8
-9 -4 -6 3 -14 -3 -20 -12 -5 -10 -13 -15 -17 -11 -10 10 -46 -11 -39 -23 4
-5 3 -18 0 -29 -5 -16 -10 -18 -24 -10 -21 11 -61 -12 -61 -36 0 -20 13 -17
28 6 9 15 17 18 29 12 9 -5 24 -7 34 -5 11 3 19 0 19 -7 0 -7 -6 -10 -14 -7
-8 3 -17 -2 -21 -11 -6 -16 -7 -16 -20 1 -20 27 -28 3 -11 -32 14 -25 14 -30
1 -41 -8 -7 -12 -17 -9 -22 4 -6 11 -4 16 6 5 9 14 14 19 10 6 -4 5 -14 -4
-28 -8 -12 -18 -51 -21 -86 -4 -36 -9 -77 -12 -92 -9 -46 21 -34 46 18 15 30
20 55 16 75 -7 34 -1 37 14 8 14 -26 21 -89 10 -89 -5 0 -12 -9 -15 -20 -3
-11 -12 -20 -19 -20 -22 0 -37 -22 -25 -36 9 -11 14 -11 25 1 8 7 14 18 14 24
0 6 2 11 4 11 2 0 11 3 20 6 10 4 16 1 16 -7 0 -8 7 -23 15 -34 15 -19 15 -19
31 4 15 21 17 22 36 5 17 -16 21 -16 30 -4 8 12 9 11 4 -3 -3 -10 -6 -22 -6
-27 0 -5 -10 -10 -21 -12 -12 -2 -27 -11 -33 -21 -9 -15 -6 -22 14 -37 60 -45
110 -99 98 -106 -6 -4 -14 -2 -16 4 -2 7 -10 12 -17 12 -8 0 -22 14 -32 30 -9
17 -21 30 -26 30 -5 0 -6 -13 -2 -30 8 -35 -8 -41 -27 -10 -20 31 -26 24 -25
-32 0 -34 -4 -53 -13 -56 -7 -3 -10 0 -6 6 3 6 2 13 -3 16 -5 4 -13 1 -17 -6
-5 -8 -10 -4 -15 10 -5 14 -14 20 -24 16 -19 -8 -21 36 -3 54 9 9 7 12 -9 12
-16 0 -22 -8 -27 -35 -4 -21 -13 -35 -21 -35 -17 0 -20 21 -5 36 7 7 6 20 -5
40 -13 26 -13 30 0 40 8 6 15 15 15 19 0 4 -6 2 -14 -4 -12 -10 -19 -8 -35 8
-12 12 -21 29 -21 39 0 10 -5 23 -11 29 -8 8 -5 17 10 32 12 12 16 23 10 27
-6 3 -6 10 -1 17 17 21 24 70 12 77 -9 6 -9 13 -1 28 6 11 11 33 11 49 0 15
11 41 25 57 14 16 24 31 22 33 -2 1 -22 -5 -45 -14 -31 -12 -39 -19 -32 -28 6
-7 7 -20 4 -30 -7 -17 -8 -17 -21 1 -14 18 -15 18 -27 2 -7 -10 -16 -18 -20
-18 -10 0 -7 60 4 81 9 16 7 19 -14 19 -13 0 -27 -7 -30 -16 -10 -27 -26 -5
-20 29 l6 32 -21 -25 c-11 -14 -21 -36 -21 -48 0 -34 -27 -86 -66 -129 -40
-44 -41 -48 -10 -48 13 0 22 5 20 10 -2 6 0 17 5 25 8 12 13 12 30 -4 22 -20
29 -56 11 -56 -5 0 -10 -10 -10 -21 0 -21 -1 -20 -26 6 -26 29 -41 25 -46 -10
-4 -23 -30 -51 -72 -78 -27 -18 -28 -18 -24 -1 2 10 14 24 28 31 l25 13 -32 0
c-23 0 -36 -6 -44 -21 -8 -16 -13 -18 -19 -9 -5 8 -9 4 -14 -13 -7 -28 -31
-57 -48 -57 -6 0 -8 9 -5 21 4 15 0 23 -12 26 -15 4 -17 20 -16 146 0 84 5
150 11 161 8 13 8 30 2 53 -5 19 -7 38 -3 41 10 10 22 -17 18 -41 -2 -13 6
-34 22 -52 25 -29 26 -29 18 -5 -8 27 -7 47 2 100 11 58 14 65 27 52 20 -20
25 -14 37 48 7 33 16 60 20 60 5 0 11 10 14 22 5 18 8 19 21 8 13 -10 16 -10
16 0 0 10 3 10 15 0 18 -15 35 -5 35 21 0 18 2 18 24 4 21 -14 25 -14 36 0 9
11 17 12 30 5 29 -16 70 -13 64 4 -4 11 0 13 15 9 13 -3 23 0 27 10 3 9 19 19
35 22 38 9 40 34 2 27 -16 -2 -36 -12 -46 -20 -16 -14 -19 -14 -27 -2 -8 13
-10 12 -10 -2 0 -12 -7 -17 -22 -17 -13 1 -32 -2 -43 -7 -18 -7 -18 -6 -6 9
11 14 11 17 0 17 -8 0 -1 7 15 15 17 9 58 16 93 17 35 0 65 4 67 7 3 4 35 8
73 9 37 2 69 4 70 5 1 1 19 2 40 2 30 0 40 -5 48 -22z m122 11 c-3 -3 -12 -4
-19 -1 -8 3 -5 6 6 6 11 1 17 -2 13 -5z m240 0 c-3 -3 -12 -4 -19 -1 -8 3 -5
6 6 6 11 1 17 -2 13 -5z m-1267 -75 c0 -5 -4 -9 -10 -9 -5 0 -10 7 -10 16 0 8
5 12 10 9 6 -3 10 -10 10 -16z m1045 -67 c-8 -9 -25 20 -18 31 3 5 10 2 15 -7
6 -10 7 -20 3 -24z m-1038 -14 c-3 -8 -6 -5 -6 6 -1 11 2 17 5 13 3 -3 4 -12
1 -19z m-1194 -52 c6 -19 6 -31 -2 -39 -8 -8 -11 -5 -11 11 0 12 -4 22 -10 22
-5 0 -10 9 -10 21 0 29 22 19 33 -15z m3088 24 c16 -9 50 -60 49 -75 -1 -20 1
-25 9 -25 5 0 9 6 8 13 0 6 1 26 2 42 1 22 4 26 10 15 6 -8 8 -17 6 -20 -2 -4
-5 -23 -7 -43 -1 -21 -5 -37 -8 -37 -3 0 -28 23 -55 50 -27 28 -57 50 -67 50
-23 0 -23 -19 0 -27 18 -6 61 -52 62 -65 0 -5 -7 -8 -15 -8 -8 0 -15 -7 -15
-15 0 -8 7 -15 15 -15 8 0 15 -4 15 -10 0 -19 -20 -10 -50 23 -16 17 -30 42
-30 55 0 12 -6 22 -14 22 -8 0 -13 11 -12 30 1 24 5 30 23 30 12 0 25 5 28 10
8 13 21 13 46 0z m596 -10 c1 -11 -2 -20 -8 -20 -10 0 -12 23 -2 33 9 9 9 10
10 -13z m-2496 -168 c-8 -12 -10 3 -11 59 0 42 3 79 8 83 11 12 14 -122 3
-142z m-297 69 c-7 -45 -24 -56 -24 -15 0 26 18 69 26 61 3 -2 2 -23 -2 -46z
m1146 30 c0 -6 -4 -13 -10 -16 -5 -3 -10 1 -10 9 0 9 5 16 10 16 6 0 10 -4 10
-9z m-2720 -17 c0 -8 -4 -12 -10 -9 -5 3 -10 10 -10 16 0 5 5 9 10 9 6 0 10
-7 10 -16z m2067 -6 c-3 -8 -6 -5 -6 6 -1 11 2 17 5 13 3 -3 4 -12 1 -19z
m610 -20 c-3 -8 -6 -5 -6 6 -1 11 2 17 5 13 3 -3 4 -12 1 -19z m-577 -4 c0 -8
-4 -12 -10 -9 -5 3 -10 10 -10 16 0 5 5 9 10 9 6 0 10 -7 10 -16z m1460 -19
c7 -8 8 -15 2 -15 -5 0 -15 7 -22 15 -7 8 -8 15 -2 15 5 0 15 -7 22 -15z
m-1556 -91 c8 -21 8 -24 -3 -24 -5 0 -11 9 -14 20 -6 24 8 27 17 4z m-157 -26
c-3 -7 -5 -2 -5 12 0 14 2 19 5 13 2 -7 2 -19 0 -25z m126 -23 c4 -8 2 -17 -3
-20 -6 -4 -10 3 -10 14 0 25 6 27 13 6z m414 -71 c-11 -11 -27 7 -27 30 0 36
14 40 24 7 5 -17 6 -34 3 -37z m107 41 c-6 -16 -24 -21 -24 -7 0 11 11 22 21
22 5 0 6 -7 3 -15z m-494 -43 c0 -8 -5 -10 -12 -6 -8 5 -9 2 -3 -12 5 -10 8
-32 7 -49 -1 -16 5 -40 14 -53 11 -17 12 -27 5 -36 -6 -7 -8 -16 -5 -19 10 -9
-5 -57 -17 -57 -8 0 -10 13 -6 35 4 26 2 35 -9 35 -8 0 -14 9 -14 20 0 11 5
20 10 20 6 0 10 7 10 15 0 8 -4 15 -10 15 -5 0 -7 13 -4 29 4 16 1 32 -5 35
-8 5 -6 16 5 38 12 24 18 28 25 17 5 -8 9 -20 9 -27z m-220 -28 c0 -13 -4 -24
-10 -24 -5 0 -10 9 -10 19 0 11 -3 28 -7 38 -6 16 -5 16 10 4 9 -7 17 -24 17
-37z m110 15 c-7 -11 -14 -18 -17 -15 -3 3 0 12 7 21 18 21 23 19 10 -6z m610
11 c0 -5 -5 -10 -11 -10 -5 0 -7 5 -4 10 3 6 8 10 11 10 2 0 4 -4 4 -10z
m1229 -19 c8 -5 9 -11 3 -15 -5 -3 -15 1 -22 9 -14 16 -3 20 19 6z m-119 -41
c0 -5 -4 -10 -10 -10 -5 0 -10 5 -10 10 0 6 5 10 10 10 6 0 10 -4 10 -10z
m-3200 -37 c0 -20 -3 -24 -11 -16 -7 7 -9 19 -6 27 10 24 17 19 17 -11z m4077
-9 c-9 -9 -28 6 -21 18 4 6 10 6 17 -1 6 -6 8 -13 4 -17z m-2162 -14 c3 -5 1
-10 -4 -10 -6 0 -11 5 -11 10 0 6 2 10 4 10 3 0 8 -4 11 -10z m485 0 c0 -5 -4
-10 -10 -10 -5 0 -10 5 -10 10 0 6 5 10 10 10 6 0 10 -4 10 -10z m90 -16 c0
-8 -4 -12 -10 -9 -5 3 -10 10 -10 16 0 5 5 9 10 9 6 0 10 -7 10 -16z m-2443
-16 c-3 -8 -6 -5 -6 6 -1 11 2 17 5 13 3 -3 4 -12 1 -19z m120 0 c-3 -8 -6 -5
-6 6 -1 11 2 17 5 13 3 -3 4 -12 1 -19z m1723 12 c0 -5 -4 -10 -10 -10 -5 0
-10 5 -10 10 0 6 5 10 10 10 6 0 10 -4 10 -10z m195 -68 c3 -8 3 -17 1 -19 -6
-7 -86 75 -86 88 0 13 77 -49 85 -69z m395 43 c15 -18 5 -35 -21 -35 -10 0
-19 -4 -19 -10 0 -5 4 -10 10 -10 5 0 7 -13 4 -30 -4 -19 -2 -30 5 -30 6 0 11
-7 11 -15 0 -23 -14 -18 -32 13 -16 28 -18 58 -4 80 4 6 4 17 1 22 -16 27 24
40 45 15z m-1144 -22 c-10 -10 -19 5 -10 18 6 11 8 11 12 0 2 -7 1 -15 -2 -18z
m1204 7 c0 -11 -4 -20 -9 -20 -5 0 -7 9 -4 20 3 11 7 20 9 20 2 0 4 -9 4 -20z
m-803 -22 c-3 -7 -5 -2 -5 12 0 14 2 19 5 13 2 -7 2 -19 0 -25z m103 17 c0 -9
-7 -18 -15 -21 -8 -4 -15 -12 -15 -19 0 -7 -7 -18 -15 -25 -13 -11 -15 -8 -15
18 0 21 7 36 22 46 28 20 38 20 38 1z m-2210 -9 c0 -3 -4 -8 -10 -11 -5 -3
-10 -1 -10 4 0 6 5 11 10 11 6 0 10 -2 10 -4z m2760 -22 c0 -2 -7 -4 -15 -4
-8 0 -15 4 -15 10 0 5 7 7 15 4 8 -4 15 -8 15 -10z m-680 -2 c0 -14 -39 -46
-47 -39 -3 4 2 16 12 27 19 21 35 26 35 12z m831 -40 c8 -20 6 -21 -11 -12
-11 6 -20 18 -20 26 0 22 22 12 31 -14z m-441 -3 c0 -18 -2 -19 -15 -9 -15 12
-12 30 6 30 5 0 9 -10 9 -21z m519 -3 c16 -17 20 -30 15 -50 -5 -21 -9 -24
-20 -15 -16 13 -19 33 -4 24 6 -3 10 1 10 9 0 10 -6 13 -15 10 -8 -4 -15 -2
-15 4 0 6 -3 17 -6 26 -9 24 9 19 35 -8z m-3029 -22 c0 -14 -4 -23 -10 -19 -5
3 -10 15 -10 26 0 10 5 19 10 19 6 0 10 -12 10 -26z m1437 4 c-3 -8 -6 -5 -6
6 -1 11 2 17 5 13 3 -3 4 -12 1 -19z m1108 -34 c-12 -12 -19 -14 -27 -6 -8 8
-5 17 13 31 19 16 25 17 27 5 2 -8 -4 -21 -13 -30z m-2465 -35 c0 -5 -4 -9
-10 -9 -5 0 -10 7 -10 16 0 8 5 12 10 9 6 -3 10 -10 10 -16z m325 11 c3 -5 1
-10 -4 -10 -6 0 -11 5 -11 10 0 6 2 10 4 10 3 0 8 -4 11 -10z m2382 -72 c-3
-8 -6 -5 -6 6 -1 11 2 17 5 13 3 -3 4 -12 1 -19z m-128 -10 c-1 -7 -5 -24 -9
-38 -7 -22 -8 -21 -9 13 -1 20 4 37 9 37 6 0 10 -6 9 -12z m-2479 -19 c0 -11
-4 -17 -10 -14 -5 3 -10 13 -10 21 0 8 5 14 10 14 6 0 10 -9 10 -21z m2467
-81 c-3 -8 -6 -5 -6 6 -1 11 2 17 5 13 3 -3 4 -12 1 -19z m383 -12 c0 -3 -4
-8 -10 -11 -5 -3 -10 -1 -10 4 0 6 5 11 10 11 6 0 10 -2 10 -4z m-2040 -147
c0 -6 -4 -7 -10 -4 -5 3 -10 11 -10 16 0 6 5 7 10 4 6 -3 10 -11 10 -16z
m1414 -5 c9 -24 2 -26 -12 -4 -7 11 -8 20 -3 20 5 0 12 -7 15 -16z m-2288
-482 c-12 -11 -18 7 -10 30 l8 23 4 -23 c2 -13 1 -26 -2 -30z m44 -138 c0 -8
-5 -12 -10 -9 -6 4 -8 11 -5 16 9 14 15 11 15 -7z m70 -35 c0 -11 -4 -17 -10
-14 -5 3 -10 13 -10 21 0 8 5 14 10 14 6 0 10 -9 10 -21z m55 -128 c3 -5 1
-12 -5 -16 -5 -3 -10 1 -10 9 0 18 6 21 15 7z m185 -81 c0 -5 -5 -10 -11 -10
-5 0 -7 5 -4 10 3 6 8 10 11 10 2 0 4 -4 4 -10z m1 -33 c-1 -12 -15 -9 -19 4
-3 6 1 10 8 8 6 -3 11 -8 11 -12z m3609 -47 c0 -5 -5 -10 -11 -10 -5 0 -7 5
-4 10 3 6 8 10 11 10 2 0 4 -4 4 -10z m-32 -52 c-6 -18 -28 -21 -28 -4 0 9 7
16 16 16 9 0 14 -5 12 -12z m-3433 -86 c0 -9 10 -21 23 -27 12 -5 22 -15 22
-22 0 -24 -22 -25 -47 -2 -23 23 -25 23 -38 6 -7 -10 -16 -14 -19 -8 -4 5 -2
12 4 16 6 4 8 11 5 16 -4 5 3 9 14 9 12 0 20 3 20 8 -1 4 -1 13 0 21 1 19 16
4 16 -17z m-109 -15 c2 -17 -2 -27 -10 -27 -7 0 -13 13 -13 30 0 37 19 35 23
-3z m34 -48 c0 -5 -4 -9 -10 -9 -5 0 -10 7 -10 16 0 8 5 12 10 9 6 -3 10 -10
10 -16z m200 -81 c0 -12 -14 -10 -35 5 -10 8 -15 19 -11 26 6 9 13 8 27 -5 10
-9 19 -21 19 -26z m48 -6 c2 -7 -2 -10 -12 -6 -9 3 -16 11 -16 16 0 13 23 5
28 -10z m296 -68 c9 -3 16 -12 16 -19 0 -7 6 -15 13 -18 6 -2 10 -7 7 -10 -6
-7 -60 36 -60 47 0 8 4 8 24 0z m71 -12 c0 -18 -20 -15 -23 4 -3 10 1 15 10
12 7 -3 13 -10 13 -16z m107 -43 l33 -30 -42 27 c-24 15 -43 28 -43 30 0 12
24 0 52 -27z m-52 -22 c8 -3 0 -6 -18 -6 -22 -1 -31 -5 -26 -12 4 -7 21 -9 43
-5 25 4 44 1 59 -10 25 -17 29 -44 7 -44 -8 0 -15 5 -15 10 0 6 -5 10 -11 10
-7 0 -9 -10 -5 -26 6 -23 4 -26 -13 -21 -17 4 -18 2 -8 -14 6 -10 22 -19 34
-19 26 0 31 -15 7 -24 -18 -7 -60 18 -68 41 -4 8 -13 13 -21 9 -9 -3 -15 0
-15 8 0 8 6 16 13 19 8 3 5 12 -10 29 -25 27 -30 57 -11 76 9 9 15 9 27 -2 9
-7 23 -16 31 -19z m-110 -8 c0 -5 -4 -9 -10 -9 -5 0 -10 7 -10 16 0 8 5 12 10
9 6 -3 10 -10 10 -16z m47 -64 c3 -9 3 -19 -1 -22 -7 -7 -36 16 -36 28 0 15
30 10 37 -6z m183 -34 c0 -5 -6 -14 -14 -20 -16 -13 -32 2 -21 19 8 12 35 13
35 1z m60 -36 c7 -9 11 -18 8 -20 -6 -6 -58 18 -58 28 0 13 37 7 50 -8z m100
-53 c0 -1 -9 2 -20 8 -11 6 -20 15 -20 20 0 6 9 2 20 -7 11 -10 20 -19 20 -21z
m145 -42 c10 -11 24 -20 32 -20 7 0 13 -4 13 -10 0 -5 -4 -10 -9 -10 -6 0 -13
5 -16 10 -3 6 -15 10 -26 10 -10 0 -19 2 -19 4 0 2 -3 11 -6 20 -9 22 9 20 31
-4z m-96 -27 c9 -20 15 -23 23 -15 16 16 28 15 28 -1 0 -7 9 -23 20 -35 11
-12 20 -26 20 -32 0 -5 6 -10 13 -10 6 0 21 -13 32 -30 11 -16 24 -29 30 -29
23 3 36 -2 55 -21 22 -22 27 -45 8 -37 -50 18 -58 18 -51 0 5 -13 -3 -10 -29
12 -20 17 -37 39 -37 49 -1 26 -65 83 -93 84 -13 0 -46 13 -75 30 -34 21 -53
27 -56 19 -3 -9 -7 -9 -17 0 -7 6 -9 16 -6 22 12 19 50 12 86 -14 39 -29 37
-28 45 -15 3 6 -6 15 -22 21 -22 8 -24 12 -13 19 22 14 26 13 39 -17z m2278
-155 c-2 -13 -4 -3 -4 22 0 25 2 35 4 23 2 -13 2 -33 0 -45z m-2107 42 c0 -5
-4 -10 -10 -10 -5 0 -10 5 -10 10 0 6 5 10 10 10 6 0 10 -4 10 -10z m100 -120
c0 -5 -5 -10 -11 -10 -5 0 -7 5 -4 10 3 6 8 10 11 10 2 0 4 -4 4 -10z m35 -57
c-28 -20 -41 -16 -20 7 10 11 22 17 28 13 6 -4 3 -12 -8 -20z m-45 -13 c0 -5
-4 -10 -10 -10 -5 0 -10 5 -10 10 0 6 5 10 10 10 6 0 10 -4 10 -10z m80 -30
c0 -5 -4 -10 -10 -10 -5 0 -10 5 -10 10 0 6 5 10 10 10 6 0 10 -4 10 -10z m70
-10 c0 -5 -2 -10 -4 -10 -3 0 -8 5 -11 10 -3 6 -1 10 4 10 6 0 11 -4 11 -10z
m40 -90 c0 -5 -5 -10 -11 -10 -5 0 -7 5 -4 10 3 6 8 10 11 10 2 0 4 -4 4 -10z
m-135 -10 c3 -6 -1 -7 -9 -4 -18 7 -21 14 -7 14 6 0 13 -4 16 -10z m672 -56
c-3 -3 -12 -4 -19 -1 -8 3 -5 6 6 6 11 1 17 -2 13 -5z m700 -430 c-3 -3 -12
-4 -19 -1 -8 3 -5 6 6 6 11 1 17 -2 13 -5z m-117 -14 c0 -5 -4 -10 -10 -10 -5
0 -10 5 -10 10 0 6 5 10 10 10 6 0 10 -4 10 -10z"/>
<path d="M5865 4420 c3 -5 10 -10 16 -10 5 0 9 5 9 10 0 6 -7 10 -16 10 -8 0
-12 -4 -9 -10z"/>
<path d="M5196 4183 c10 -40 14 -41 14 -5 0 18 -5 32 -10 32 -6 0 -8 -11 -4
-27z"/>
<path d="M5150 4100 c0 -11 4 -20 9 -20 5 0 7 9 4 20 -3 11 -7 20 -9 20 -2 0
-4 -9 -4 -20z"/>
<path d="M5650 4020 c-12 -7 -12 -12 -2 -22 14 -14 35 1 24 19 -5 8 -13 9 -22
3z"/>
<path d="M5230 3946 c0 -8 -3 -21 -6 -30 -3 -9 -2 -16 4 -16 13 0 22 49 11 56
-5 3 -9 -1 -9 -10z"/>
<path d="M5170 3940 c0 -5 5 -10 11 -10 5 0 7 5 4 10 -3 6 -8 10 -11 10 -2 0
-4 -4 -4 -10z"/>
<path d="M5677 3804 c-8 -8 3 -34 14 -34 11 0 12 27 0 34 -4 3 -11 3 -14 0z"/>
<path d="M5730 3732 c0 -5 7 -16 16 -23 14 -12 16 -11 13 5 -4 20 -29 35 -29
18z"/>
<path d="M4495 9180 c-3 -5 -17 -10 -29 -10 -20 0 -25 -6 -28 -34 -4 -39 13
-39 31 1 7 16 17 23 26 19 8 -3 22 -9 30 -12 10 -4 15 0 15 10 0 9 5 16 11 16
5 0 7 5 4 10 -3 6 -17 10 -30 10 -13 0 -27 -4 -30 -10z"/>
<path d="M4583 9183 c-23 -8 -13 -22 15 -22 15 1 36 -1 47 -3 12 -2 21 3 23
13 2 13 -5 16 -35 16 -21 0 -44 -2 -50 -4z"/>
<path d="M4680 9175 c0 -9 5 -15 11 -13 6 2 11 8 11 13 0 5 -5 11 -11 13 -6 2
-11 -4 -11 -13z"/>
<path d="M4380 9144 c0 -8 5 -12 10 -9 6 4 8 11 5 16 -9 14 -15 11 -15 -7z"/>
<path d="M4375 9078 c-6 -24 -3 -35 10 -44 9 -7 14 -17 10 -23 -3 -6 -2 -11 3
-11 13 0 23 54 11 58 -5 2 -9 12 -9 22 0 33 -18 31 -25 -2z"/>
<path d="M4486 9075 c-3 -8 -1 -15 4 -15 6 0 10 7 10 15 0 8 -2 15 -4 15 -2 0
-6 -7 -10 -15z"/>
<path d="M4325 9055 c2 -37 15 -43 15 -7 0 18 -4 32 -8 32 -4 0 -7 -11 -7 -25z"/>
<path d="M4810 9031 c0 -12 5 -21 10 -21 6 0 10 6 10 14 0 8 -4 18 -10 21 -5
3 -10 -3 -10 -14z"/>
<path d="M4470 9019 c0 -5 5 -7 10 -4 6 3 10 8 10 11 0 2 -4 4 -10 4 -5 0 -10
-5 -10 -11z"/>
<path d="M4250 9011 c0 -6 5 -13 10 -16 6 -3 10 1 10 9 0 9 -4 16 -10 16 -5 0
-10 -4 -10 -9z"/>
<path d="M4555 9010 c-4 -7 -3 -15 2 -19 5 -3 12 -14 16 -24 4 -10 11 -15 17
-12 14 9 12 16 -9 44 -13 17 -20 20 -26 11z"/>
<path d="M4525 9001 c-3 -5 -1 -12 5 -16 5 -3 10 1 10 9 0 18 -6 21 -15 7z"/>
<path d="M4445 8989 c-11 -16 0 -21 31 -13 25 6 26 8 9 15 -28 11 -33 10 -40
-2z"/>
<path d="M4820 8992 c0 -7 5 -12 11 -12 6 0 8 -9 4 -20 -5 -17 -2 -20 26 -20
18 0 29 3 24 8 -6 4 -22 18 -37 31 -16 14 -28 19 -28 13z"/>
<path d="M4910 8984 c0 -8 5 -12 10 -9 6 3 10 10 10 16 0 5 -4 9 -10 9 -5 0
-10 -7 -10 -16z"/>
<path d="M5090 8984 c0 -9 5 -14 12 -12 18 6 21 28 4 28 -9 0 -16 -7 -16 -16z"/>
<path d="M4330 8954 c0 -22 6 -49 14 -60 21 -28 31 -10 11 20 -10 14 -15 32
-12 39 3 8 1 20 -4 28 -6 10 -9 1 -9 -27z"/>
<path d="M4414 8944 c4 -9 1 -23 -5 -30 -13 -16 4 -44 26 -44 12 0 13 17 6 78
0 6 -8 12 -17 12 -11 0 -14 -5 -10 -16z"/>
<path d="M4480 8926 c0 -35 25 -40 26 -5 1 18 -4 29 -12 29 -8 0 -14 -10 -14
-24z"/>
<path d="M4806 8931 c-3 -5 1 -12 10 -15 22 -8 25 -4 9 11 -8 7 -16 9 -19 4z"/>
<path d="M4925 8930 c-3 -5 -2 -10 4 -10 5 0 13 5 16 10 3 6 2 10 -4 10 -5 0
-13 -4 -16 -10z"/>
<path d="M4903 8895 c0 -17 -2 -36 -6 -42 -4 -6 -3 -14 3 -18 5 -3 10 0 10 9
0 8 6 17 13 19 9 4 9 8 1 14 -7 4 -14 17 -17 28 -3 13 -5 9 -4 -10z"/>
<path d="M4424 8839 c-11 -18 33 -39 49 -23 3 3 3 12 0 20 -6 17 -39 19 -49 3z"/>
<path d="M4645 8807 c-4 -10 -5 -21 -1 -24 10 -10 18 4 13 24 -4 17 -4 17 -12
0z"/>
<path d="M4294 8787 c3 -10 6 -23 6 -28 0 -5 5 -9 10 -9 14 0 12 13 -6 36 -14
17 -15 17 -10 1z"/>
<path d="M5011 8356 c-9 -10 -8 -16 4 -26 9 -7 19 -9 23 -5 4 4 2 10 -5 12 -7
2 -9 11 -6 19 7 18 -1 18 -16 0z"/>
<path d="M5975 7820 c3 -5 11 -10 16 -10 6 0 7 5 4 10 -3 6 -11 10 -16 10 -6
0 -7 -4 -4 -10z"/>
<path d="M5913 7743 c-13 -5 -18 -33 -7 -33 4 0 12 8 19 17 11 15 13 15 24 -5
6 -12 17 -22 23 -22 6 0 1 11 -12 25 -24 26 -27 27 -47 18z"/>
<path d="M5922 7525 c-7 -8 -9 -15 -4 -15 5 0 15 7 22 15 16 19 -1 19 -18 0z"/>
<path d="M5870 7489 c0 -5 5 -7 10 -4 6 3 10 8 10 11 0 2 -4 4 -10 4 -5 0 -10
-5 -10 -11z"/>
<path d="M5944 7486 c-21 -16 -19 -20 14 -30 23 -8 32 8 10 17 -10 4 -10 6 0
6 13 1 17 21 4 21 -5 0 -17 -6 -28 -14z"/>
<path d="M3930 7480 c0 -5 7 -10 16 -10 8 0 12 5 9 10 -3 6 -10 10 -16 10 -5
0 -9 -4 -9 -10z"/>
<path d="M6910 7464 c0 -30 27 -75 51 -83 42 -14 42 -2 2 43 -38 42 -53 54
-53 40z"/>
<path d="M6110 7399 c0 -5 5 -7 10 -4 6 3 10 8 10 11 0 2 -4 4 -10 4 -5 0 -10
-5 -10 -11z"/>
<path d="M3945 7360 c-10 -11 -14 -20 -9 -20 5 0 15 9 22 20 7 11 11 20 9 20
-2 0 -12 -9 -22 -20z"/>
<path d="M6960 7331 c0 -6 5 -13 10 -16 6 -3 10 1 10 9 0 9 -4 16 -10 16 -5 0
-10 -4 -10 -9z"/>
<path d="M3960 7290 c-21 -13 -7 -22 27 -18 27 3 27 4 7 15 -12 7 -26 8 -34 3z"/>
<path d="M6980 7274 c0 -18 34 -100 48 -117 28 -32 32 -3 7 49 -23 47 -55 87
-55 68z"/>
<path d="M3950 7240 c0 -5 4 -10 9 -10 6 0 13 5 16 10 3 6 -1 10 -9 10 -9 0
-16 -4 -16 -10z"/>
<path d="M5263 7181 c-3 -13 -11 -20 -19 -17 -10 4 -14 -3 -14 -24 0 -17 -4
-30 -10 -30 -5 0 -10 11 -10 25 0 14 -4 25 -10 25 -5 0 -10 -5 -10 -11 0 -6
-7 -3 -16 5 -21 22 -34 20 -34 -4 0 -19 -2 -20 -36 -5 -45 19 -45 19 -37 -2 5
-14 0 -13 -25 6 -27 19 -37 21 -60 13 -20 -8 -22 -11 -7 -11 14 -1 16 -4 8
-12 -8 -8 -17 -8 -33 1 -32 17 -37 4 -9 -28 14 -15 31 -35 38 -44 10 -14 9
-16 -8 -11 -12 3 -21 10 -21 17 0 6 -23 22 -51 34 -50 23 -79 24 -79 1 0 -7
-11 -9 -34 -5 -18 4 -46 2 -61 -4 -20 -7 -31 -8 -39 0 -16 16 -29 12 -22 -6 5
-14 1 -16 -24 -11 -16 4 -29 3 -29 -1 3 -19 -2 -23 -15 -13 -8 7 -22 8 -33 4
-16 -6 -19 -13 -12 -30 5 -13 13 -23 19 -23 5 0 10 -4 10 -9 0 -10 -39 -3 -57
11 -7 5 -14 5 -18 -2 -3 -5 -19 -10 -36 -10 -35 0 -38 -13 -6 -28 21 -11 20
-12 -10 -9 -19 1 -41 -5 -53 -15 -11 -10 -26 -15 -35 -12 -10 4 -15 0 -15 -10
0 -9 -7 -16 -15 -16 -8 0 -15 -6 -15 -12 -1 -18 -38 -61 -47 -55 -4 3 -19 0
-33 -5 -20 -7 -22 -11 -10 -19 11 -8 10 -9 -7 -4 -13 3 -23 3 -23 -1 0 -4 10
-19 23 -32 l22 -25 -26 7 c-19 4 -29 1 -33 -9 -4 -12 0 -14 21 -9 18 5 24 4
19 -5 -4 -6 -15 -11 -24 -11 -13 0 -12 -5 8 -20 35 -27 63 -27 55 1 -6 18 -4
20 14 14 13 -4 28 -1 37 6 11 9 18 9 26 1 21 -21 30 -13 14 10 -23 32 -20 36
23 34 50 -1 59 8 36 34 -18 20 -18 20 13 9 25 -9 36 -8 53 5 21 14 25 14 56
-5 36 -22 43 -17 16 13 -17 19 -16 19 12 12 27 -7 29 -6 16 9 -17 21 -3 22 23
2 35 -26 52 -18 25 11 l-24 26 35 -7 c19 -4 47 -19 63 -33 33 -31 39 -8 7 26
-25 26 -18 28 21 5 17 -10 27 -23 24 -31 -2 -7 1 -12 8 -11 6 1 20 -1 30 -6
30 -13 29 0 -2 36 -32 36 -24 54 11 23 11 -11 23 -18 27 -18 3 1 5 -2 3 -7 -1
-5 2 -9 6 -9 5 0 18 -13 30 -30 16 -21 21 -37 16 -55 l-6 -25 -33 20 c-41 26
-49 25 -34 -2 10 -18 9 -20 -5 -15 -11 5 -16 1 -16 -13 0 -22 -16 -35 -25 -20
-8 12 -65 13 -65 1 0 -5 -20 -19 -45 -31 -25 -12 -43 -25 -40 -30 2 -4 -8 -10
-24 -13 -16 -4 -41 -17 -56 -31 -15 -14 -33 -22 -41 -19 -8 3 -14 -1 -14 -10
0 -9 -9 -18 -19 -22 -11 -3 -22 -12 -25 -20 -3 -8 -10 -15 -16 -15 -14 0 -40
-25 -40 -39 0 -6 -9 -15 -19 -20 -11 -6 -33 -33 -50 -61 -34 -55 -41 -100 -16
-100 19 0 71 26 104 51 28 22 41 24 41 6 0 -10 21 -12 83 -11 45 1 91 4 102 6
14 2 19 -2 17 -14 -4 -22 14 -24 22 -3 7 20 37 19 123 -5 39 -11 91 -18 116
-16 37 3 44 0 39 -12 -4 -12 1 -14 25 -9 30 6 39 -1 49 -38 1 -5 5 -18 9 -27
5 -13 0 -20 -19 -28 -14 -5 -26 -17 -26 -26 0 -12 -6 -15 -22 -11 -13 4 -29 0
-39 -9 -10 -9 -38 -21 -64 -28 -25 -6 -46 -15 -46 -20 1 -5 32 -10 70 -10 39
-1 73 -4 76 -8 4 -4 19 -2 34 4 26 10 56 16 121 22 40 4 63 11 102 32 14 8 33
14 43 14 9 0 26 11 38 23 33 36 61 49 75 35 9 -9 12 -7 12 9 0 24 -18 33 -63
33 -37 0 -70 18 -49 27 7 2 19 11 26 19 8 8 21 14 28 14 8 0 32 16 54 35 21
19 45 35 53 35 52 0 154 61 157 93 0 7 6 24 12 40 7 15 16 38 22 52 5 14 16
25 25 25 18 0 20 26 3 33 -9 3 -5 11 11 26 26 23 41 27 41 10 0 -5 -4 -8 -9
-5 -5 3 -11 -1 -15 -9 -3 -8 0 -15 7 -15 22 1 47 27 47 48 0 13 5 20 13 16 7
-2 24 7 37 22 25 26 25 26 3 20 -17 -6 -23 -3 -23 8 0 9 8 16 19 16 10 0 24 7
32 16 12 14 14 14 26 -2 7 -10 13 -13 13 -7 0 15 38 21 73 11 23 -6 28 -4 25
10 -2 10 -11 16 -21 14 -12 -2 -17 4 -17 23 0 14 -4 25 -10 25 -18 0 -6 53 12
58 20 5 23 19 9 41 -10 16 -31 6 -31 -14 0 -7 -7 -16 -16 -19 -15 -6 -15 -4 0
18 10 15 12 27 6 31 -6 3 -14 -5 -19 -18 -6 -14 -16 -27 -23 -30 -10 -4 -10
-8 2 -16 13 -9 13 -11 -2 -11 -10 0 -18 7 -18 15 0 9 -9 15 -21 15 -16 0 -20
-4 -14 -17 5 -14 4 -15 -6 -6 -10 10 -9 17 5 32 19 21 14 41 -11 41 -11 0 -14
6 -10 22 8 28 -35 72 -53 54 -8 -8 -9 1 -4 34 7 45 6 45 -13 25 -11 -11 -25
-29 -31 -40 -11 -19 -11 -19 -12 3 0 12 5 22 10 22 6 0 10 7 10 15 0 8 -4 15
-9 15 -12 0 -38 -25 -44 -42 -8 -22 -18 -2 -20 39 -1 37 -2 38 -19 24 -10 -9
-18 -26 -18 -38 0 -30 -16 -29 -24 1 -3 14 -15 26 -28 29 -13 2 -31 8 -40 12
-15 6 -18 2 -18 -19 0 -35 -13 -33 -27 4 -16 41 -36 40 -28 -2 l6 -33 -20 23
c-25 29 -31 28 -32 -5 0 -20 -2 -23 -7 -12 -4 9 -22 29 -40 44 -33 28 -33 28
-39 6z m-13 -96 c11 -13 10 -14 -4 -9 -9 3 -16 10 -16 15 0 13 6 11 20 -6z
m-353 -1 c-3 -3 -12 -4 -19 -1 -8 3 -5 6 6 6 11 1 17 -2 13 -5z m263 -9 c7 -8
9 -15 6 -15 -4 0 -14 7 -22 15 -9 8 -11 15 -6 15 5 0 15 -7 22 -15z m200 -38
c0 -5 -4 -5 -10 -2 -5 3 -10 14 -10 23 0 15 2 15 10 2 5 -8 10 -19 10 -23z
m47 1 c-3 -8 -6 -5 -6 6 -1 11 2 17 5 13 3 -3 4 -12 1 -19z m-197 -48 c0 -5
-2 -10 -4 -10 -3 0 -8 5 -11 10 -3 6 -1 10 4 10 6 0 11 -4 11 -10z m-314 -102
c23 -28 45 -74 37 -81 -10 -11 -43 18 -43 38 0 11 -7 31 -16 43 -20 29 -3 29
22 0z m-539 -14 c-3 -3 -12 -4 -19 -1 -8 3 -5 6 6 6 11 1 17 -2 13 -5z m104
-11 c13 -15 12 -15 -8 -4 -24 12 -29 21 -14 21 5 0 15 -7 22 -17z m534 7 c3
-5 2 -10 -4 -10 -5 0 -13 5 -16 10 -3 6 -2 10 4 10 5 0 13 -4 16 -10z m25 -76
c0 -14 -3 -14 -15 -4 -8 7 -15 14 -15 16 0 2 7 4 15 4 8 0 15 -7 15 -16z m-60
-34 c0 -5 -8 -10 -17 -10 -15 0 -16 2 -3 10 19 12 20 12 20 0z m-110 -19 c0
-5 -9 -11 -20 -14 -22 -6 -28 8 -7 16 19 8 27 8 27 -2z m-110 -256 c0 -8 9
-32 20 -53 21 -39 15 -50 -19 -33 -11 6 -38 11 -60 11 -31 0 -41 4 -41 16 0
14 -3 14 -15 4 -8 -7 -15 -9 -15 -4 1 17 92 74 118 74 6 0 12 -7 12 -15z m110
0 c0 -8 -4 -15 -9 -15 -13 0 -22 16 -14 24 11 11 23 6 23 -9z m268 -204 c3 -8
-1 -12 -9 -9 -7 2 -15 10 -17 17 -3 8 1 12 9 9 7 -2 15 -10 17 -17z m-43 -14
c0 -26 -20 -25 -23 2 -3 16 1 22 10 19 7 -3 13 -12 13 -21z"/>
<path d="M6430 7160 c-15 -27 -3 -87 14 -70 6 6 11 16 11 22 0 6 10 12 23 13
33 2 51 23 32 35 -8 6 -22 9 -30 8 -8 -2 -20 1 -27 5 -7 5 -16 -1 -23 -13z"/>
<path d="M7035 7108 c9 -28 32 -54 41 -45 3 3 0 20 -7 36 -16 37 -44 43 -34 9z"/>
<path d="M5880 7031 c0 -6 9 -15 21 -21 18 -10 20 -9 17 7 -3 19 -38 32 -38
14z"/>
<path d="M6100 7035 c0 -2 9 -9 20 -15 16 -9 18 -8 14 5 -5 13 -34 22 -34 10z"/>
<path d="M6275 7020 c-3 -5 -1 -10 4 -10 6 0 11 5 11 10 0 6 -2 10 -4 10 -3 0
-8 -4 -11 -10z"/>
<path d="M5981 6844 c0 -11 3 -14 6 -6 3 7 2 16 -1 19 -3 4 -6 -2 -5 -13z"/>
<path d="M4580 6800 c0 -5 5 -10 11 -10 5 0 7 5 4 10 -3 6 -8 10 -11 10 -2 0
-4 -4 -4 -10z"/>
<path d="M4740 6796 c0 -2 7 -9 15 -16 9 -7 15 -8 15 -2 0 5 -7 12 -15 16 -8
3 -15 4 -15 2z"/>
<path d="M5890 6745 c0 -8 5 -15 10 -15 6 0 10 7 10 15 0 8 -4 15 -10 15 -5 0
-10 -7 -10 -15z"/>
<path d="M4176 6705 c4 -8 16 -15 27 -15 20 0 20 0 1 15 -25 19 -35 19 -28 0z"/>
<path d="M4148 6673 c7 -3 16 -2 19 1 4 3 -2 6 -13 5 -11 0 -14 -3 -6 -6z"/>
<path d="M2279 6171 c-43 -4 -84 -13 -93 -20 -9 -7 -16 -10 -16 -5 0 4 -4 4
-10 -2 -14 -14 -15 -200 -2 -249 6 -22 11 -112 12 -200 0 -88 2 -174 3 -192 4
-39 17 -56 17 -22 0 13 7 56 15 94 18 82 25 154 29 287 4 115 16 140 84 170
34 15 69 21 128 22 79 1 82 0 125 -36 64 -52 115 -78 151 -78 17 0 40 -7 50
-17 35 -31 28 -6 -9 34 -21 23 -44 48 -51 57 -9 11 -21 15 -34 10 -14 -4 -18
-2 -14 5 4 7 -1 11 -12 11 -11 0 -31 9 -45 20 -14 11 -43 28 -64 36 -21 9 -58
28 -83 44 -55 34 -83 39 -181 31z"/>
<path d="M6460 5979 c0 -5 5 -7 10 -4 6 3 10 8 10 11 0 2 -4 4 -10 4 -5 0 -10
-5 -10 -11z"/>
<path d="M5965 5753 c-11 -3 -24 -9 -29 -14 -6 -5 -16 -9 -24 -9 -17 0 -108
-45 -127 -62 -7 -7 -29 -26 -48 -43 -19 -16 -33 -35 -30 -42 3 -7 -2 -13 -11
-13 -9 0 -16 -6 -16 -14 0 -19 -55 -76 -74 -76 -10 0 -13 -5 -9 -17 5 -14 1
-15 -36 -10 -38 5 -41 4 -29 -11 23 -30 52 -54 90 -73 52 -27 107 -14 162 39
59 56 176 134 192 128 8 -3 14 0 14 7 0 7 9 18 20 25 18 11 25 10 52 -9 l30
-22 48 24 c41 20 49 29 54 59 8 46 8 75 0 67 -4 -3 -18 6 -33 22 -21 22 -39
30 -86 35 -33 4 -67 9 -75 10 -8 2 -24 1 -35 -1z"/>
<path d="M2700 5706 c-19 -13 -46 -27 -60 -31 -32 -10 -81 -46 -75 -55 3 -4
-2 -13 -10 -20 -8 -7 -15 -21 -15 -31 0 -11 -4 -19 -9 -19 -19 0 -93 -78 -86
-90 5 -9 2 -10 -14 -5 -13 4 -21 2 -21 -5 0 -6 -11 -15 -25 -20 -21 -8 -25
-15 -23 -47 2 -26 12 -47 31 -66 16 -15 35 -43 43 -62 13 -32 59 -74 69 -63 3
2 -4 14 -15 25 -10 12 -22 43 -25 70 -6 44 -4 51 25 86 17 20 35 35 40 32 10
-6 84 54 124 102 16 19 49 46 73 60 24 14 43 30 44 36 4 52 -13 128 -28 126
-5 0 -24 -11 -43 -23z"/>
<path d="M7160 5630 c0 -5 5 -10 11 -10 5 0 7 5 4 10 -3 6 -8 10 -11 10 -2 0
-4 -4 -4 -10z"/>
<path d="M7030 5575 c0 -14 49 -14 53 0 1 6 -10 10 -25 10 -16 1 -28 -4 -28
-10z"/>
<path d="M7091 5529 c-22 -19 -41 -27 -52 -24 -14 5 -17 2 -13 -8 9 -24 45
-29 51 -7 6 22 33 35 33 16 0 -19 37 -27 50 -11 7 8 7 15 1 19 -5 3 -12 0 -14
-6 -4 -10 -6 -10 -6 0 -1 6 -8 12 -16 12 -18 0 -20 17 -2 23 6 2 10 7 7 10 -3
3 -21 -8 -39 -24z"/>
<path d="M7040 5540 c0 -5 4 -10 9 -10 6 0 13 5 16 10 3 6 -1 10 -9 10 -9 0
-16 -4 -16 -10z"/>
<path d="M5340 5490 c0 -5 7 -10 16 -10 8 0 12 5 9 10 -3 6 -10 10 -16 10 -5
0 -9 -4 -9 -10z"/>
<path d="M2180 5440 c0 -5 5 -10 11 -10 5 0 7 5 4 10 -3 6 -8 10 -11 10 -2 0
-4 -4 -4 -10z"/>
<path d="M5260 5430 c0 -11 6 -20 14 -20 9 0 12 7 9 20 -3 11 -9 20 -14 20 -5
0 -9 -9 -9 -20z"/>
<path d="M5313 5433 c-15 -5 -17 -23 -4 -23 5 0 11 7 15 15 3 8 4 15 3 14 -1
0 -8 -3 -14 -6z"/>
<path d="M2190 5400 c0 -5 5 -10 10 -10 6 0 10 5 10 10 0 6 -4 10 -10 10 -5 0
-10 -4 -10 -10z"/>
<path d="M5233 5393 c-20 -7 -15 -23 7 -23 12 0 20 -7 20 -17 0 -13 3 -14 12
-5 10 10 8 16 -7 31 -11 10 -26 17 -32 14z"/>
<path d="M2200 5366 c0 -9 5 -16 10 -16 6 0 10 4 10 9 0 6 -4 13 -10 16 -5 3
-10 -1 -10 -9z"/>
<path d="M5198 5324 c4 -24 6 -24 21 -9 14 14 14 17 1 25 -23 15 -28 12 -22
-16z"/>
<path d="M2210 5322 c0 -20 33 -102 41 -102 14 0 11 17 -11 66 -19 41 -30 54
-30 36z"/>
<path d="M5230 5280 c0 -5 7 -10 15 -10 8 0 15 5 15 10 0 6 -7 10 -15 10 -8 0
-15 -4 -15 -10z"/>
<path d="M5170 5265 c7 -8 17 -12 22 -9 6 4 5 10 -3 15 -22 14 -33 10 -19 -6z"/>
<path d="M2290 5143 c0 -14 28 -49 34 -42 3 3 -3 16 -14 29 -11 13 -20 19 -20
13z"/>
<path d="M5465 5140 c-3 -5 -1 -10 4 -10 6 0 11 5 11 10 0 6 -2 10 -4 10 -3 0
-8 -4 -11 -10z"/>
<path d="M2961 5094 c0 -11 3 -14 6 -6 3 7 2 16 -1 19 -3 4 -6 -2 -5 -13z"/>
<path d="M3476 5091 c-4 -7 -5 -15 -2 -18 9 -9 19 4 14 18 -4 11 -6 11 -12 0z"/>
<path d="M2342 5071 c13 -22 38 -36 38 -22 0 5 -11 16 -25 25 -25 17 -25 16
-13 -3z"/>
<path d="M2325 4710 c-9 -17 -20 -28 -25 -25 -9 6 -184 -20 -200 -30 -6 -3
-10 -11 -10 -17 0 -13 122 -2 186 17 25 7 61 11 80 8 36 -6 45 6 19 27 -8 7
-15 18 -15 26 0 27 -20 24 -35 -6z"/>
<path d="M4915 4637 c-4 -10 -5 -21 -1 -24 10 -10 18 4 13 24 -4 17 -4 17 -12
0z"/>
<path d="M2460 4597 c0 -48 108 -274 148 -310 18 -17 21 -16 51 12 17 16 53
40 78 52 26 13 63 37 83 55 19 17 49 38 66 47 26 14 31 21 26 44 -7 39 -20 53
-51 53 -39 0 -134 9 -150 15 -7 3 -20 0 -27 -6 -9 -7 -14 -8 -14 -1 0 9 -51
32 -73 32 -5 0 -2 -11 7 -25 9 -14 14 -26 11 -26 -22 -6 -35 -3 -70 15 -22 11
-50 29 -62 40 -20 17 -23 17 -23 3z"/>
<path d="M2770 4574 c0 -14 3 -14 15 -4 8 7 15 14 15 16 0 2 -7 4 -15 4 -8 0
-15 -7 -15 -16z"/>
<path d="M2431 4494 c0 -11 3 -14 6 -6 3 7 2 16 -1 19 -3 4 -6 -2 -5 -13z"/>
<path d="M3771 4466 c-11 -13 -11 -20 -3 -28 8 -8 13 -7 18 5 10 27 0 41 -15
23z"/>
<path d="M2441 4453 c1 -24 41 -96 56 -101 7 -2 1 22 -15 57 -27 60 -43 77
-41 44z"/>
<path d="M3950 4361 c0 -5 -3 -18 -7 -28 -6 -16 -5 -16 10 -4 19 15 23 41 7
41 -5 0 -10 -4 -10 -9z"/>
<path d="M3990 4355 c0 -8 5 -15 10 -15 6 0 10 7 10 15 0 8 -4 15 -10 15 -5 0
-10 -7 -10 -15z"/>
<path d="M7516 4363 c-11 -11 -6 -23 9 -23 8 0 15 4 15 9 0 13 -16 22 -24 14z"/>
<path d="M4850 4339 c0 -5 5 -7 10 -4 6 3 10 8 10 11 0 2 -4 4 -10 4 -5 0 -10
-5 -10 -11z"/>
<path d="M3954 4315 c-5 -11 -10 -12 -26 -4 -30 16 -31 5 -2 -22 l25 -24 19
25 c11 14 20 28 20 33 0 13 -31 7 -36 -8z"/>
<path d="M4810 4286 c0 -8 5 -18 10 -21 6 -3 10 3 10 14 0 12 -4 21 -10 21 -5
0 -10 -6 -10 -14z"/>
<path d="M3840 4270 c0 -5 5 -10 10 -10 6 0 10 5 10 10 0 6 -4 10 -10 10 -5 0
-10 -4 -10 -10z"/>
<path d="M3880 4265 c0 -9 6 -12 15 -9 8 4 15 10 15 15 0 5 -7 9 -15 9 -8 0
-15 -7 -15 -15z"/>
<path d="M7530 4221 c0 -6 4 -13 10 -16 6 -3 7 1 4 9 -7 18 -14 21 -14 7z"/>
<path d="M7606 3684 c-4 -15 -5 -29 -1 -32 3 -3 5 2 5 11 0 10 5 17 10 17 6 0
10 7 10 15 0 25 -17 17 -24 -11z"/>
<path d="M2830 3550 c0 -5 4 -10 9 -10 6 0 13 5 16 10 3 6 -1 10 -9 10 -9 0
-16 -4 -16 -10z"/>
<path d="M2879 3416 c-9 -9 2 -66 12 -66 5 0 9 8 8 18 -1 24 -14 54 -20 48z"/>
<path d="M3100 3076 c0 -2 8 -10 18 -17 15 -13 16 -12 3 4 -13 16 -21 21 -21
13z"/>
<path d="M3116 2831 c-4 -6 -3 -19 3 -28 9 -17 10 -17 17 0 8 21 -10 45 -20
28z"/>
<path d="M3152 2728 c2 -6 10 -14 16 -16 7 -2 10 2 6 12 -7 18 -28 22 -22 4z"/>
<path d="M3321 2464 c0 -11 3 -14 6 -6 3 7 2 16 -1 19 -3 4 -6 -2 -5 -13z"/>
<path d="M7130 2249 c0 -5 5 -7 10 -4 6 3 10 8 10 11 0 2 -4 4 -10 4 -5 0 -10
-5 -10 -11z"/>
<path d="M3490 2200 c0 -5 5 -10 10 -10 6 0 10 5 10 10 0 6 -4 10 -10 10 -5 0
-10 -4 -10 -10z"/>
<path d="M7060 2199 c0 -5 5 -7 10 -4 6 3 10 8 10 11 0 2 -4 4 -10 4 -5 0 -10
-5 -10 -11z"/>
<path d="M3732 1996 c7 -8 15 -12 17 -11 5 6 -10 25 -20 25 -5 0 -4 -6 3 -14z"/>
<path d="M4055 1948 c-4 -9 -1 -27 6 -40 14 -27 160 -167 174 -168 5 0 -13 21
-41 48 -28 26 -59 61 -69 79 -10 17 -27 34 -38 37 -12 3 -17 10 -14 19 3 8 1
20 -3 28 -7 11 -10 11 -15 -3z"/>
<path d="M3690 1942 c0 -5 7 -15 15 -22 8 -7 15 -8 15 -2 0 5 -7 15 -15 22 -8
7 -15 8 -15 2z"/>
<path d="M3982 1929 c-15 -23 -3 -49 46 -101 28 -31 86 -42 61 -12 -7 9 -14
25 -16 37 -5 28 -23 48 -42 46 -31 -3 -41 1 -41 16 0 8 5 15 10 15 6 0 10 5
10 10 0 17 -14 11 -28 -11z m81 -91 c-5 -10 -33 10 -33 23 0 5 9 4 19 -3 11
-7 17 -16 14 -20z"/>
<path d="M3840 1928 c0 -7 9 -24 20 -38 16 -21 20 -22 20 -7 0 23 -18 57 -30
57 -6 0 -10 -6 -10 -12z"/>
<path d="M4150 1772 c0 -15 38 -58 45 -50 3 2 -6 18 -20 34 -14 16 -25 23 -25
16z"/>
<path d="M4130 1721 c0 -5 7 -12 16 -15 14 -5 15 -4 4 9 -14 17 -20 19 -20 6z"/>
<path d="M4380 1719 c0 -13 31 -67 50 -84 15 -14 20 -15 20 -4 0 13 -69 100
-70 88z"/>
<path d="M4360 1667 c0 -12 35 -57 45 -57 2 0 -5 16 -16 35 -23 38 -29 43 -29
22z"/>
<path d="M4500 1590 c0 -7 9 -14 20 -17 11 -3 20 -9 20 -14 0 -5 6 -9 13 -9 6
0 23 -9 37 -20 26 -20 50 -26 50 -12 0 11 -87 67 -117 76 -15 5 -23 3 -23 -4z"/>
<path d="M4550 1515 c7 -9 15 -13 17 -11 7 7 -7 26 -19 26 -6 0 -6 -6 2 -15z"/>
<path d="M4577 1403 c-17 -16 -5 -33 23 -33 34 0 39 14 11 30 -23 12 -26 12
-34 3z"/>
<path d="M4498 1353 c7 -3 16 -2 19 1 4 3 -2 6 -13 5 -11 0 -14 -3 -6 -6z"/>
<path d="M4740 1239 c0 -5 5 -7 10 -4 6 3 10 8 10 11 0 2 -4 4 -10 4 -5 0 -10
-5 -10 -11z"/>
<path d="M4850 1186 c0 -9 7 -16 16 -16 17 0 14 22 -4 28 -7 2 -12 -3 -12 -12z"/>
<path d="M4797 1174 c-8 -8 1 -24 14 -24 5 0 9 7 9 15 0 15 -12 20 -23 9z"/>
<path d="M4965 1160 c-3 -5 1 -10 10 -10 9 0 13 5 10 10 -3 6 -8 10 -10 10 -2
0 -7 -4 -10 -10z"/>
<path d="M5100 1126 c0 -8 5 -18 10 -21 6 -3 10 3 10 14 0 12 -4 21 -10 21 -5
0 -10 -6 -10 -14z"/>
<path d="M4880 1126 c0 -2 7 -9 15 -16 12 -10 15 -10 15 4 0 9 -7 16 -15 16
-8 0 -15 -2 -15 -4z"/>
<path d="M5003 1116 c9 -7 17 -22 18 -32 0 -11 3 -13 6 -6 2 6 12 12 21 12 13
0 11 5 -8 20 -14 11 -32 20 -40 19 -12 0 -12 -2 3 -13z"/>
<path d="M5520 1115 c-14 -16 -10 -18 14 -9 9 3 16 10 16 15 0 14 -16 11 -30
-6z"/>
<path d="M5480 1070 c0 -5 5 -10 10 -10 6 0 10 5 10 10 0 6 -4 10 -10 10 -5 0
-10 -4 -10 -10z"/>
<path d="M5570 1030 c0 -13 28 -25 38 -16 3 4 0 11 -8 16 -20 13 -30 12 -30 0z"/>
</g>
</svg>
